<?xml version="1.0" encoding="UTF-8"?>
<svg xmlns="http://www.w3.org/2000/svg" xmlns:xlink="http://www.w3.org/1999/xlink" width="800pt" height="123.44pt" viewBox="0 0 800 123.44" version="1.1">
<defs>
<clipPath id="clip1">
  <path d="M 0 12 L 99 12 L 99 123.441406 L 0 123.441406 Z M 0 12 "/>
</clipPath>
</defs>
<g id="surface1">
<path style=" stroke:none;fill-rule:nonzero;fill:rgb(13.299561%,12.199402%,12.5%);fill-opacity:1;" d="M 156.65625 72.675781 L 156.65625 72.539063 C 156.65625 58.921875 166.859375 47.761719 181.367188 47.761719 C 190.195313 47.761719 195.535156 50.84375 200.121094 55.226563 L 194.714844 61.453125 C 190.878906 57.894531 186.773438 55.5 181.296875 55.5 C 172.191406 55.5 165.484375 63.027344 165.484375 72.40625 L 165.484375 72.539063 C 165.484375 81.917969 172.128906 89.515625 181.296875 89.515625 C 187.183594 89.515625 190.953125 87.1875 195.054688 83.359375 L 200.46875 88.832031 C 195.46875 94.039063 189.992188 97.324219 181.023438 97.324219 C 167.058594 97.324219 156.65625 86.4375 156.65625 72.675781 "/>
<path style=" stroke:none;fill-rule:nonzero;fill:rgb(13.299561%,12.199402%,12.5%);fill-opacity:1;" d="M 228.9375 83.492188 L 228.9375 81.03125 C 226.8125 80.207031 224.011719 79.589844 220.726563 79.589844 C 215.386719 79.589844 212.238281 81.851563 212.238281 85.617188 L 212.238281 85.75 C 212.238281 89.242188 215.316406 91.230469 219.285156 91.230469 C 224.765625 91.230469 228.9375 88.082031 228.9375 83.492188 M 204.15625 86.097656 L 204.15625 85.957031 C 204.15625 78.152344 210.25 74.320313 219.082031 74.320313 C 223.121094 74.320313 225.996094 74.9375 228.800781 75.824219 L 228.800781 74.9375 C 228.800781 69.800781 225.652344 67.066406 219.835938 67.066406 C 215.796875 67.066406 212.785156 67.953125 209.5 69.324219 L 207.308594 62.824219 C 211.277344 61.039063 215.179688 59.878906 220.933594 59.878906 C 226.339844 59.878906 230.375 61.316406 232.90625 63.914063 C 235.574219 66.519531 236.808594 70.351563 236.808594 75.078125 L 236.808594 96.496094 L 228.734375 96.496094 L 228.734375 91.984375 C 226.269531 94.925781 222.503906 97.253906 216.960938 97.253906 C 210.1875 97.253906 204.15625 93.347656 204.15625 86.097656 "/>
<path style=" stroke:none;fill-rule:nonzero;fill:rgb(13.299561%,12.199402%,12.5%);fill-opacity:1;" d="M 244.953125 60.359375 L 253.238281 60.359375 L 253.238281 65.832031 C 255.566406 62.617188 258.714844 59.605469 264.257813 59.605469 C 269.457031 59.605469 273.15625 62.136719 275.070313 65.96875 C 277.949219 62.136719 281.78125 59.605469 287.257813 59.605469 C 295.125 59.605469 299.921875 64.601563 299.921875 73.429688 L 299.921875 96.496094 L 291.636719 96.496094 L 291.636719 75.960938 C 291.636719 70.210938 288.96875 67.132813 284.3125 67.132813 C 279.792969 67.132813 276.578125 70.28125 276.578125 76.101563 L 276.578125 96.496094 L 268.296875 96.496094 L 268.296875 75.890625 C 268.296875 70.28125 265.558594 67.132813 260.976563 67.132813 C 256.386719 67.132813 253.238281 70.558594 253.238281 76.101563 L 253.238281 96.496094 L 244.953125 96.496094 L 244.953125 60.359375 "/>
<path style=" stroke:none;fill-rule:nonzero;fill:rgb(13.299561%,12.199402%,12.5%);fill-opacity:1;" d="M 337.15625 78.496094 L 337.15625 78.359375 C 337.15625 71.378906 332.429688 66.792969 326.820313 66.792969 C 321.207031 66.792969 316.273438 71.445313 316.273438 78.359375 L 316.273438 78.496094 C 316.273438 85.40625 321.207031 90.0625 326.820313 90.0625 C 332.5 90.0625 337.15625 85.617188 337.15625 78.496094 M 316.484375 90.882813 L 316.484375 96.5 L 308.199219 96.5 L 308.199219 46.535156 L 316.484375 46.535156 L 316.484375 66.382813 C 319.152344 62.617188 322.914063 59.605469 328.804688 59.605469 C 337.292969 59.605469 345.570313 66.316406 345.570313 78.359375 L 345.570313 78.496094 C 345.570313 90.476563 337.359375 97.253906 328.804688 97.253906 C 322.777344 97.253906 319.015625 94.242188 316.484375 90.882813 "/>
<path style=" stroke:none;fill-rule:nonzero;fill:rgb(13.299561%,12.199402%,12.5%);fill-opacity:1;" d="M 352.832031 60.359375 L 361.109375 60.359375 L 361.109375 96.496094 L 352.832031 96.496094 Z M 352.484375 46.941406 L 361.382813 46.941406 L 361.382813 54.816406 L 352.484375 54.816406 L 352.484375 46.941406 "/>
<path style=" stroke:none;fill-rule:nonzero;fill:rgb(13.299561%,12.199402%,12.5%);fill-opacity:1;" d="M 369.738281 83.355469 L 369.738281 60.359375 L 378.019531 60.359375 L 378.019531 80.894531 C 378.019531 86.503906 380.820313 89.652344 385.753906 89.652344 C 390.546875 89.652344 393.898438 86.371094 393.898438 80.75 L 393.898438 60.359375 L 402.246094 60.359375 L 402.246094 96.5 L 393.898438 96.5 L 393.898438 90.882813 C 391.570313 94.308594 388.21875 97.253906 382.601563 97.253906 C 374.460938 97.253906 369.738281 91.773438 369.738281 83.355469 "/>
<path style=" stroke:none;fill-rule:nonzero;fill:rgb(13.299561%,12.199402%,12.5%);fill-opacity:1;" d="M 410.804688 60.359375 L 419.089844 60.359375 L 419.089844 65.832031 C 421.417969 62.617188 424.566406 59.605469 430.109375 59.605469 C 435.308594 59.605469 439.007813 62.136719 440.917969 65.96875 C 443.800781 62.136719 447.632813 59.605469 453.105469 59.605469 C 460.976563 59.605469 465.773438 64.601563 465.773438 73.429688 L 465.773438 96.496094 L 457.488281 96.496094 L 457.488281 75.960938 C 457.488281 70.210938 454.820313 67.132813 450.164063 67.132813 C 445.644531 67.132813 442.429688 70.28125 442.429688 76.101563 L 442.429688 96.496094 L 434.148438 96.496094 L 434.148438 75.890625 C 434.148438 70.28125 431.40625 67.132813 426.824219 67.132813 C 422.238281 67.132813 419.089844 70.558594 419.089844 76.101563 L 419.089844 96.496094 L 410.804688 96.496094 L 410.804688 60.359375 "/>
<path style=" stroke:none;fill-rule:nonzero;fill:rgb(13.299561%,12.199402%,12.5%);fill-opacity:1;" d="M 493.761719 48.585938 L 501.566406 48.585938 L 527.230469 81.714844 L 527.230469 48.585938 L 535.519531 48.585938 L 535.519531 96.496094 L 528.472656 96.496094 L 502.046875 62.414063 L 502.046875 96.496094 L 493.761719 96.496094 L 493.761719 48.585938 "/>
<path style=" stroke:none;fill-rule:nonzero;fill:rgb(13.299561%,12.199402%,12.5%);fill-opacity:1;" d="M 569.878906 75.894531 C 569.335938 70.558594 566.179688 66.378906 560.710938 66.378906 C 555.640625 66.378906 552.085938 70.28125 551.328125 75.894531 Z M 543.113281 78.566406 L 543.113281 78.425781 C 543.113281 68.089844 550.4375 59.605469 560.773438 59.605469 C 572.273438 59.605469 578.089844 68.640625 578.089844 79.042969 C 578.089844 79.796875 578.027344 80.550781 577.960938 81.371094 L 551.398438 81.371094 C 552.289063 87.253906 556.460938 90.542969 561.800781 90.542969 C 565.839844 90.542969 568.710938 89.039063 571.59375 86.230469 L 576.453125 90.542969 C 573.023438 94.652344 568.304688 97.324219 561.664063 97.324219 C 551.1875 97.324219 543.113281 89.722656 543.113281 78.566406 "/>
<path style=" stroke:none;fill-rule:nonzero;fill:rgb(13.299561%,12.199402%,12.5%);fill-opacity:1;" d="M 586.371094 86.503906 L 586.371094 67.476563 L 581.789063 67.476563 L 581.789063 60.355469 L 586.371094 60.355469 L 586.371094 50.433594 L 594.65625 50.433594 L 594.65625 60.355469 L 604.371094 60.355469 L 604.371094 67.476563 L 594.65625 67.476563 L 594.65625 85.203125 C 594.65625 88.425781 596.296875 89.722656 599.105469 89.722656 C 600.957031 89.722656 602.59375 89.308594 604.238281 88.492188 L 604.238281 95.265625 C 602.1875 96.425781 599.925781 97.117188 596.78125 97.117188 C 590.6875 97.117188 586.371094 94.445313 586.371094 86.503906 "/>
<path style=" stroke:none;fill-rule:nonzero;fill:rgb(13.299561%,12.199402%,12.5%);fill-opacity:1;" d="M 608.003906 60.359375 L 616.492188 60.359375 L 623.746094 85.136719 L 631.753906 60.222656 L 638.871094 60.222656 L 646.882813 85.136719 L 654.273438 60.359375 L 662.625 60.359375 L 650.78125 96.773438 L 643.324219 96.773438 L 635.242188 72.0625 L 627.101563 96.773438 L 619.703125 96.773438 L 608.003906 60.359375 "/>
<path style=" stroke:none;fill-rule:nonzero;fill:rgb(13.299561%,12.199402%,12.5%);fill-opacity:1;" d="M 694.726563 78.628906 L 694.726563 78.5 C 694.726563 72.132813 690.140625 66.859375 683.640625 66.859375 C 677.003906 66.859375 672.753906 72.058594 672.753906 78.359375 L 672.753906 78.5 C 672.753906 84.792969 677.339844 90.0625 683.777344 90.0625 C 690.480469 90.0625 694.726563 84.859375 694.726563 78.628906 M 664.472656 78.628906 L 664.472656 78.5 C 664.472656 68.160156 672.6875 59.605469 683.777344 59.605469 C 694.859375 59.605469 703.007813 68.023438 703.007813 78.359375 L 703.007813 78.5 C 703.007813 88.761719 694.796875 97.324219 683.640625 97.324219 C 672.617188 97.324219 664.472656 88.898438 664.472656 78.628906 "/>
<path style=" stroke:none;fill-rule:nonzero;fill:rgb(13.299561%,12.199402%,12.5%);fill-opacity:1;" d="M 709.648438 60.359375 L 717.933594 60.359375 L 717.933594 68.5 C 720.191406 63.09375 724.367188 59.402344 730.734375 59.671875 L 730.734375 68.4375 L 730.253906 68.4375 C 722.996094 68.4375 717.933594 73.15625 717.933594 82.738281 L 717.933594 96.496094 L 709.648438 96.496094 L 709.648438 60.359375 "/>
<path style=" stroke:none;fill-rule:nonzero;fill:rgb(13.299561%,12.199402%,12.5%);fill-opacity:1;" d="M 736.136719 46.53125 L 744.421875 46.53125 L 744.421875 76.371094 L 759.410156 60.355469 L 769.472656 60.355469 L 755.097656 75.074219 L 769.957031 96.5 L 760.234375 96.5 L 749.554688 80.824219 L 744.421875 86.164063 L 744.421875 96.5 L 736.136719 96.5 L 736.136719 46.53125 "/>
<path style=" stroke:none;fill-rule:nonzero;fill:rgb(13.299561%,12.199402%,12.5%);fill-opacity:1;" d="M 771.253906 91.773438 L 774.945313 86.160156 C 778.914063 89.105469 783.09375 90.613281 786.789063 90.613281 C 790.355469 90.613281 792.40625 89.105469 792.40625 86.710938 L 792.40625 86.574219 C 792.40625 83.769531 788.570313 82.808594 784.324219 81.511719 C 778.984375 80.003906 773.03125 77.808594 773.03125 70.898438 L 773.03125 70.761719 C 773.03125 63.917969 778.710938 59.742188 785.902344 59.742188 C 790.417969 59.742188 795.34375 61.316406 799.179688 63.847656 L 795.894531 69.734375 C 792.40625 67.609375 788.707031 66.3125 785.695313 66.3125 C 782.480469 66.3125 780.632813 67.820313 780.632813 69.867188 L 780.632813 70.011719 C 780.632813 72.675781 784.527344 73.769531 788.773438 75.144531 C 794.042969 76.785156 800 79.179688 800 85.6875 L 800 85.816406 C 800 93.417969 794.113281 97.183594 786.585938 97.183594 C 781.453125 97.183594 775.769531 95.332031 771.253906 91.773438 "/>
<path style=" stroke:none;fill-rule:nonzero;fill:rgb(10.998535%,25.099182%,46.699524%);fill-opacity:1;" d="M 82.207031 32.21875 C 73.835938 36.898438 67.789063 44.558594 65.183594 53.792969 C 62.574219 63.019531 63.71875 72.714844 68.40625 81.082031 C 74.753906 92.417969 86.769531 99.460938 99.777344 99.460938 C 104.019531 99.460938 108.226563 98.675781 112.210938 97.207031 C 119.28125 87.167969 123.441406 74.933594 123.441406 61.71875 C 123.441406 50.640625 120.511719 40.25 115.398438 31.265625 C 110.585938 28.921875 105.234375 27.640625 99.703125 27.640625 C 93.609375 27.640625 87.5625 29.21875 82.207031 32.21875 "/>
<path style=" stroke:none;fill-rule:nonzero;fill:rgb(10.998535%,25.099182%,46.699524%);fill-opacity:1;" d="M 33.605469 72.691406 C 36.910156 78.59375 41.101563 83.816406 45.960938 88.242188 C 43.789063 85.578125 41.828125 82.71875 40.117188 79.660156 C 24.582031 51.886719 33.652344 16.914063 60.179688 0.0390625 C 52.566406 0.226563 45.296875 1.785156 38.609375 4.488281 C 23.941406 23.585938 21.121094 50.378906 33.605469 72.691406 "/>
<g clip-path="url(#clip1)" clip-rule="nonzero">
<path style=" stroke:none;fill-rule:nonzero;fill:rgb(10.998535%,25.099182%,46.699524%);fill-opacity:1;" d="M 26.820313 76.488281 C 15.328125 55.949219 15.375 32.046875 24.796875 12.261719 C 9.75 23.519531 0 41.480469 0 61.71875 C 0 95.804688 27.636719 123.441406 61.726563 123.441406 C 75.40625 123.441406 88.042969 118.984375 98.273438 111.445313 C 94.824219 111.976563 91.328125 112.25 87.835938 112.25 C 62.539063 112.25 39.15625 98.550781 26.820313 76.488281 "/>
</g>
<path style=" stroke:none;fill-rule:nonzero;fill:rgb(10.998535%,25.099182%,46.699524%);fill-opacity:1;" d="M 74.890625 19.363281 C 64.753906 25.035156 57.429688 34.3125 54.277344 45.492188 C 51.117188 56.667969 52.507813 68.410156 58.179688 78.546875 C 58.671875 79.433594 59.203125 80.304688 59.761719 81.148438 C 55.65625 71.878906 54.914063 61.5625 57.703125 51.675781 C 60.871094 40.449219 68.226563 31.128906 78.410156 25.433594 C 84.914063 21.789063 92.28125 19.863281 99.699219 19.863281 C 102.433594 19.863281 105.128906 20.121094 107.757813 20.617188 C 105.671875 18.289063 103.421875 16.113281 101.015625 14.121094 C 99.386719 13.933594 97.742188 13.820313 96.074219 13.820313 C 88.699219 13.820313 81.371094 15.734375 74.890625 19.363281 "/>
<path style=" stroke:none;fill-rule:nonzero;fill:rgb(10.998535%,25.099182%,46.699524%);fill-opacity:1;" d="M 46.902344 75.863281 C 48.359375 78.46875 50.042969 80.898438 51.886719 83.171875 L 51.390625 82.339844 C 44.703125 70.398438 43.070313 56.558594 46.792969 43.378906 C 50.511719 30.203125 59.144531 19.261719 71.089844 12.582031 C 76.742188 9.417969 82.9375 7.367188 89.308594 6.507813 C 84.8125 4.257813 80.011719 2.542969 74.976563 1.445313 C 72.199219 2.425781 69.480469 3.625 66.890625 5.078125 C 41.867188 19.078125 32.898438 50.832031 46.902344 75.863281 "/>
<path style=" stroke:none;fill-rule:nonzero;fill:rgb(100%,100%,100%);fill-opacity:1;" d="M 112.210938 97.203125 C 108.230469 98.679688 104.019531 99.464844 99.777344 99.464844 C 86.773438 99.464844 74.75 92.421875 68.40625 81.085938 C 63.71875 72.714844 62.574219 63.019531 65.183594 53.792969 C 67.789063 44.5625 73.835938 36.898438 82.207031 32.214844 C 87.558594 29.222656 93.609375 27.636719 99.703125 27.636719 C 105.234375 27.636719 110.582031 28.925781 115.398438 31.261719 C 113.226563 27.445313 110.664063 23.878906 107.753906 20.621094 C 105.125 20.125 102.429688 19.863281 99.703125 19.863281 C 92.277344 19.863281 84.917969 21.789063 78.410156 25.433594 C 68.226563 31.128906 60.871094 40.449219 57.699219 51.675781 C 54.910156 61.5625 55.65625 71.878906 59.761719 81.148438 C 59.207031 80.304688 58.671875 79.4375 58.175781 78.542969 C 52.503906 68.414063 51.121094 56.671875 54.273438 45.492188 C 57.433594 34.316406 64.75 25.035156 74.886719 19.363281 C 81.371094 15.738281 88.699219 13.820313 96.078125 13.820313 C 97.738281 13.820313 99.382813 13.933594 101.015625 14.121094 C 97.429688 11.15625 93.496094 8.609375 89.304688 6.507813 C 82.9375 7.363281 76.738281 9.414063 71.085938 12.578125 C 59.144531 19.261719 50.511719 30.199219 46.789063 43.378906 C 43.070313 56.5625 44.703125 70.394531 51.386719 82.34375 L 51.890625 83.171875 C 50.046875 80.894531 48.355469 78.472656 46.902344 75.863281 C 32.898438 50.835938 41.863281 19.074219 66.894531 5.078125 C 69.484375 3.628906 72.199219 2.429688 74.980469 1.441406 C 70.707031 0.507813 66.277344 0 61.722656 0 C 61.207031 0 60.695313 0.0234375 60.179688 0.0390625 C 33.652344 16.914063 24.578125 51.886719 40.113281 79.660156 C 41.828125 82.71875 43.789063 85.578125 45.960938 88.242188 C 41.101563 83.816406 36.90625 78.59375 33.601563 72.695313 C 21.121094 50.378906 23.9375 23.585938 38.613281 4.488281 C 33.65625 6.496094 29.015625 9.105469 24.796875 12.265625 C 15.371094 32.046875 15.328125 55.953125 26.820313 76.488281 C 39.15625 98.550781 62.535156 112.253906 87.832031 112.253906 C 91.332031 112.253906 94.824219 111.976563 98.273438 111.445313 C 103.652344 107.484375 108.363281 102.671875 112.210938 97.203125 "/>
</g>
</svg>
