<?xml version="1.0" encoding="UTF-8"?>
<svg xmlns="http://www.w3.org/2000/svg" xmlns:xlink="http://www.w3.org/1999/xlink" width="792pt" height="600pt" viewBox="0 0 792 600" version="1.1">
<g id="surface1">
<path style=" stroke:none;fill-rule:nonzero;fill:rgb(100%,100%,100%);fill-opacity:1;" d="M 0 600 L 792 600 L 792 0.046875 L 0 0.046875 Z M 0 600 "/>
<path style="fill:none;stroke-width:0.94;stroke-linecap:butt;stroke-linejoin:miter;stroke:rgb(100%,100%,100%);stroke-opacity:1;stroke-miterlimit:10;" d="M -539.53125 -0.46875 L 8460.46875 -0.46875 L 8460.46875 5999.53125 L -539.53125 5999.53125 Z M -539.53125 -0.46875 " transform="matrix(0.1,0,0,-0.1,0,600)"/>
<path style=" stroke:none;fill-rule:nonzero;fill:rgb(96.899414%,56.098938%,11.799622%);fill-opacity:1;" d="M 506.546875 62.148438 C 508.746094 62.648438 510.847656 63.445313 512.945313 64.246094 C 510.445313 71.746094 505.847656 78.246094 502.148438 85.046875 C 499.046875 90.148438 496.546875 95.445313 493.046875 100.148438 C 494.347656 94.945313 496.347656 90.046875 498.046875 84.945313 C 500.847656 77.347656 503.148438 69.445313 506.546875 62.148438 "/>
<path style=" stroke:none;fill-rule:nonzero;fill:rgb(96.899414%,56.098938%,11.799622%);fill-opacity:1;" d="M 525.246094 72.945313 C 526.945313 74.246094 528.644531 75.648438 530.246094 77.148438 C 526.144531 83.046875 520.246094 87.246094 515.046875 91.945313 C 510.246094 96.046875 505.847656 100.546875 500.644531 104.148438 C 503.144531 99.648438 506.746094 95.847656 509.746094 91.746094 C 514.847656 85.445313 519.445313 78.648438 525.246094 72.945313 "/>
<path style=" stroke:none;fill-rule:nonzero;fill:rgb(13.299561%,12.199402%,12.199402%);fill-opacity:1;" d="M 416.546875 85.648438 C 418.246094 85.347656 420.746094 84.246094 421.648438 86.445313 C 424.546875 91.046875 426.648438 96.046875 429.648438 100.445313 C 431.648438 103.546875 435.347656 105.246094 439.046875 105.445313 C 450.546875 105.347656 461.746094 101.945313 473.148438 100.648438 C 478.246094 99.746094 481.347656 107.246094 477.445313 110.546875 C 469.148438 117.546875 457.648438 120.046875 449.945313 127.945313 C 447.847656 129.746094 450.046875 132.246094 451.148438 133.945313 C 456.847656 140.546875 463.546875 146.246094 469.148438 152.945313 C 470.847656 155.148438 473.246094 157.847656 471.945313 160.746094 C 470.445313 163.648438 466.648438 164.648438 463.847656 163.148438 C 454.847656 159.148438 446.746094 153.648438 438.148438 148.945313 C 436.445313 148.046875 434.246094 147.347656 432.347656 148.046875 C 430.648438 148.945313 430.046875 151.046875 429.148438 152.546875 C 419.046875 143.945313 408.347656 135.046875 402.746094 122.746094 C 405.546875 121.546875 409.445313 120.546875 410.148438 116.945313 C 411.246094 111.046875 407.746094 105.746094 405.445313 100.648438 C 404.246094 97.046875 399.648438 98.945313 396.847656 98.246094 C 396.347656 94.347656 399.746094 91.746094 402.546875 89.546875 C 404.246094 88.347656 407.246094 87.148438 408.847656 89.246094 C 413.445313 94.945313 415.445313 102.246094 420.046875 107.847656 C 421.945313 107.847656 423.445313 105.847656 422.546875 104.148438 C 420.445313 98.046875 415.847656 92.445313 416.546875 85.648438 "/>
<path style="fill:none;stroke-width:0.94;stroke-linecap:butt;stroke-linejoin:miter;stroke:rgb(22.399902%,21.598816%,21.998596%);stroke-opacity:1;stroke-miterlimit:10;" d="M 4165.46875 5143.515625 C 4182.460938 5146.523438 4207.460938 5157.539063 4216.484375 5135.546875 C 4245.46875 5089.53125 4266.484375 5039.53125 4296.484375 4995.546875 C 4316.484375 4964.53125 4353.476563 4947.539063 4390.46875 4945.546875 C 4505.46875 4946.523438 4617.460938 4980.546875 4731.484375 4993.515625 C 4782.460938 5002.539063 4813.476563 4927.539063 4774.453125 4894.53125 C 4691.484375 4824.53125 4576.484375 4799.53125 4499.453125 4720.546875 C 4478.476563 4702.539063 4500.46875 4677.539063 4511.484375 4660.546875 C 4568.476563 4594.53125 4635.46875 4537.539063 4691.484375 4470.546875 C 4708.476563 4448.515625 4732.460938 4421.523438 4719.453125 4392.539063 C 4704.453125 4363.515625 4666.484375 4353.515625 4638.476563 4368.515625 C 4548.476563 4408.515625 4467.460938 4463.515625 4381.484375 4510.546875 C 4364.453125 4519.53125 4342.460938 4526.523438 4323.476563 4519.53125 C 4306.484375 4510.546875 4300.46875 4489.53125 4291.484375 4474.53125 C 4190.46875 4560.546875 4083.476563 4649.53125 4027.460938 4772.539063 C 4055.46875 4784.53125 4094.453125 4794.53125 4101.484375 4830.546875 C 4112.460938 4889.53125 4077.460938 4942.539063 4054.453125 4993.515625 C 4042.460938 5029.53125 3996.484375 5010.546875 3968.476563 5017.539063 C 3963.476563 5056.523438 3997.460938 5082.539063 4025.46875 5104.53125 C 4042.460938 5116.523438 4072.460938 5128.515625 4088.476563 5107.539063 C 4134.453125 5050.546875 4154.453125 4977.539063 4200.46875 4921.523438 C 4219.453125 4921.523438 4234.453125 4941.523438 4225.46875 4958.515625 C 4204.453125 5019.53125 4158.476563 5075.546875 4165.46875 5143.515625 Z M 4165.46875 5143.515625 " transform="matrix(0.1,0,0,-0.1,0,600)"/>
<path style=" stroke:none;fill-rule:nonzero;fill:rgb(96.899414%,56.098938%,11.799622%);fill-opacity:1;" d="M 522.246094 100.347656 C 528.144531 96.546875 533.847656 92.445313 540.246094 89.445313 C 541.445313 91.246094 542.644531 93.148438 543.644531 95.148438 C 538.046875 98.847656 531.746094 100.945313 525.644531 103.546875 C 518.746094 106.347656 511.945313 109.347656 505.046875 111.945313 C 510.546875 107.746094 516.546875 104.246094 522.246094 100.347656 "/>
<path style=" stroke:none;fill-rule:nonzero;fill:rgb(96.899414%,56.098938%,11.799622%);fill-opacity:1;" d="M 391.746094 126.648438 C 394.648438 123.847656 398.746094 122.445313 402.746094 122.746094 C 408.347656 135.046875 419.046875 143.945313 429.144531 152.546875 C 431.445313 154.445313 433.644531 156.347656 435.945313 158.246094 C 434.945313 159.546875 433.945313 160.847656 432.945313 162.046875 C 431.945313 161.546875 431.046875 161.046875 430.144531 160.546875 C 416.144531 150.546875 403.945313 138.546875 391.746094 126.648438 "/>
<path style=" stroke:none;fill-rule:nonzero;fill:rgb(13.299561%,12.199402%,12.199402%);fill-opacity:1;" d="M 325.648438 135.648438 C 347.945313 137.347656 370.648438 134.148438 391.746094 126.648438 C 403.945313 138.546875 416.148438 150.546875 430.148438 160.546875 C 434.347656 187.945313 439.347656 215.246094 444.445313 242.445313 C 445.746094 248.546875 446.148438 255.546875 450.945313 260.246094 C 454.046875 263.347656 458.746094 262.945313 462.648438 264.347656 C 464.746094 265.546875 464.648438 267.945313 464.246094 269.945313 C 458.445313 271.347656 451.347656 271.847656 446.847656 267.246094 C 438.945313 259.648438 438.148438 248.046875 436.148438 237.847656 C 433.546875 223.945313 432.046875 209.746094 428.246094 196.046875 C 427.246094 193.046875 426.746094 189.445313 424.046875 187.347656 C 422.347656 188.347656 422.847656 190.445313 422.847656 192.046875 C 424.546875 213.347656 424.246094 234.945313 427.847656 256.148438 C 429.046875 261.246094 429.746094 267.445313 434.347656 270.746094 C 437.246094 273.246094 441.746094 274.546875 442.347656 278.847656 C 438.246094 281.046875 432.847656 280.945313 429.347656 277.746094 C 424.648438 273.546875 422.148438 267.347656 420.847656 261.246094 C 418.445313 242.546875 416.347656 223.746094 412.648438 205.246094 C 411.945313 201.347656 410.648438 197.246094 407.847656 194.246094 C 403.347656 189.148438 396.546875 186.546875 389.945313 185.347656 C 379.746094 183.546875 369.347656 181.945313 358.945313 183.148438 C 355.046875 183.546875 351.347656 185.746094 349.246094 189.246094 C 344.445313 196.847656 343.546875 206.148438 343.148438 215.046875 C 342.847656 230.046875 342.148438 245.046875 341.847656 260.046875 C 342.046875 263.546875 341.648438 267.847656 344.847656 270.246094 C 347.648438 272.546875 348.445313 276.347656 347.847656 279.847656 C 342.546875 280.046875 337.046875 276.746094 334.945313 271.945313 C 333.945313 266.648438 335.148438 261.347656 334.945313 256.046875 C 334.347656 238.347656 333.246094 220.746094 332.347656 203.046875 C 331.746094 199.648438 335.746094 196.746094 334.046875 193.246094 C 333.046875 191.546875 331.546875 189.148438 329.246094 190.046875 C 327.945313 191.347656 327.546875 193.246094 327.347656 195.046875 C 325.648438 214.746094 323.945313 234.347656 322.246094 254.046875 C 321.945313 257.347656 321.347656 260.648438 321.648438 264.046875 C 323.246094 267.945313 327.746094 270.546875 327.847656 275.148438 C 327.847656 276.847656 328.046875 279.546875 325.945313 280.046875 C 321.546875 279.347656 318.046875 275.847656 316.246094 272.046875 C 313.945313 266.648438 313.648438 260.648438 314.445313 254.945313 C 315.148438 248.347656 314.546875 241.648438 314.546875 235.046875 C 314.246094 219.046875 313.347656 203.046875 313.046875 187.148438 C 315.148438 183.246094 318.746094 180.246094 319.847656 175.847656 C 321.546875 169.148438 321.847656 162.148438 320.746094 155.347656 C 319.746094 149.347656 315.445313 144.746094 312.347656 139.847656 C 311.148438 138.347656 311.347656 136.445313 311.445313 134.648438 C 316.148438 133.246094 320.847656 135.546875 325.648438 135.648438 "/>
<path style="fill:none;stroke-width:0.94;stroke-linecap:butt;stroke-linejoin:miter;stroke:rgb(22.399902%,21.598816%,21.998596%);stroke-opacity:1;stroke-miterlimit:10;" d="M 3256.484375 4643.515625 C 3479.453125 4626.523438 3706.484375 4658.515625 3917.460938 4733.515625 C 4039.453125 4614.53125 4161.484375 4494.53125 4301.484375 4394.53125 C 4343.476563 4120.546875 4393.476563 3847.539063 4444.453125 3575.546875 C 4457.460938 3514.53125 4461.484375 3444.53125 4509.453125 3397.539063 C 4540.46875 3366.523438 4587.460938 3370.546875 4626.484375 3356.523438 C 4647.460938 3344.53125 4646.484375 3320.546875 4642.460938 3300.546875 C 4584.453125 3286.523438 4513.476563 3281.523438 4468.476563 3327.539063 C 4389.453125 3403.515625 4381.484375 3519.53125 4361.484375 3621.523438 C 4335.46875 3760.546875 4320.46875 3902.539063 4282.460938 4039.53125 C 4272.460938 4069.53125 4267.460938 4105.546875 4240.46875 4126.523438 C 4223.476563 4116.523438 4228.476563 4095.546875 4228.476563 4079.53125 C 4245.46875 3866.523438 4242.460938 3650.546875 4278.476563 3438.515625 C 4290.46875 3387.539063 4297.460938 3325.546875 4343.476563 3292.539063 C 4372.460938 3267.539063 4417.460938 3254.53125 4423.476563 3211.523438 C 4382.460938 3189.53125 4328.476563 3190.546875 4293.476563 3222.539063 C 4246.484375 3264.53125 4221.484375 3326.523438 4208.476563 3387.539063 C 4184.453125 3574.53125 4163.476563 3762.539063 4126.484375 3947.539063 C 4119.453125 3986.523438 4106.484375 4027.539063 4078.476563 4057.539063 C 4033.476563 4108.515625 3965.46875 4134.53125 3899.453125 4146.523438 C 3797.460938 4164.53125 3693.476563 4180.546875 3589.453125 4168.515625 C 3550.46875 4164.53125 3513.476563 4142.539063 3492.460938 4107.539063 C 3444.453125 4031.523438 3435.46875 3938.515625 3431.484375 3849.53125 C 3428.476563 3699.53125 3421.484375 3549.53125 3418.476563 3399.53125 C 3420.46875 3364.53125 3416.484375 3321.523438 3448.476563 3297.539063 C 3476.484375 3274.53125 3484.453125 3236.523438 3478.476563 3201.523438 C 3425.46875 3199.53125 3370.46875 3232.539063 3349.453125 3280.546875 C 3339.453125 3333.515625 3351.484375 3386.523438 3349.453125 3439.53125 C 3343.476563 3616.523438 3332.460938 3792.539063 3323.476563 3969.53125 C 3317.460938 4003.515625 3357.460938 4032.539063 3340.46875 4067.539063 C 3330.46875 4084.53125 3315.46875 4108.515625 3292.460938 4099.53125 C 3279.453125 4086.523438 3275.46875 4067.539063 3273.476563 4049.53125 C 3256.484375 3852.539063 3239.453125 3656.523438 3222.460938 3459.53125 C 3219.453125 3426.523438 3213.476563 3393.515625 3216.484375 3359.53125 C 3232.460938 3320.546875 3277.460938 3294.53125 3278.476563 3248.515625 C 3278.476563 3231.523438 3280.46875 3204.53125 3259.453125 3199.53125 C 3215.46875 3206.523438 3180.46875 3241.523438 3162.460938 3279.53125 C 3139.453125 3333.515625 3136.484375 3393.515625 3144.453125 3450.546875 C 3151.484375 3516.523438 3145.46875 3583.515625 3145.46875 3649.53125 C 3142.460938 3809.53125 3133.476563 3969.53125 3130.46875 4128.515625 C 3151.484375 4167.539063 3187.460938 4197.539063 3198.476563 4241.523438 C 3215.46875 4308.515625 3218.476563 4378.515625 3207.460938 4446.523438 C 3197.460938 4506.523438 3154.453125 4552.539063 3123.476563 4601.523438 C 3111.484375 4616.523438 3113.476563 4635.546875 3114.453125 4653.515625 C 3161.484375 4667.539063 3208.476563 4644.53125 3256.484375 4643.515625 Z M 3256.484375 4643.515625 " transform="matrix(0.1,0,0,-0.1,0,600)"/>
<path style=" stroke:none;fill-rule:nonzero;fill:rgb(13.299561%,12.199402%,12.199402%);fill-opacity:1;" d="M 435.945313 158.246094 C 438.046875 158.246094 440.445313 157.546875 442.246094 158.945313 C 444.445313 160.347656 445.144531 163.347656 444.546875 165.746094 C 443.746094 166.945313 442.746094 168.148438 441.847656 169.347656 C 439.546875 169.746094 436.746094 170.046875 434.847656 168.246094 C 432.945313 166.847656 433.046875 164.246094 432.945313 162.046875 C 433.945313 160.847656 434.945313 159.546875 435.945313 158.246094 "/>
<path style="fill:none;stroke-width:0.94;stroke-linecap:butt;stroke-linejoin:miter;stroke:rgb(22.399902%,21.598816%,21.998596%);stroke-opacity:1;stroke-miterlimit:10;" d="M 4359.453125 4417.539063 C 4380.46875 4417.539063 4404.453125 4424.53125 4422.460938 4410.546875 C 4444.453125 4396.523438 4451.445313 4366.523438 4445.46875 4342.539063 C 4437.460938 4330.546875 4427.460938 4318.515625 4418.476563 4306.523438 C 4395.46875 4302.539063 4367.460938 4299.53125 4348.476563 4317.539063 C 4329.453125 4331.523438 4330.46875 4357.539063 4329.453125 4379.53125 C 4339.453125 4391.523438 4349.453125 4404.53125 4359.453125 4417.539063 Z M 4359.453125 4417.539063 " transform="matrix(0.1,0,0,-0.1,0,600)"/>
<path style=" stroke:none;fill-rule:nonzero;fill:rgb(96.899414%,56.098938%,11.799622%);fill-opacity:1;" d="M 435.945313 163.746094 C 435.644531 160.945313 438.445313 160.445313 440.644531 160.246094 L 440.144531 161.046875 C 438.746094 162.046875 437.347656 162.945313 435.945313 163.746094 "/>
<path style=" stroke:none;fill-rule:nonzero;fill:rgb(100%,100%,100%);fill-opacity:1;" d="M 440.144531 161.046875 C 443.046875 161.347656 442.644531 166.445313 439.847656 166.945313 C 437.644531 168.046875 436.246094 165.746094 435.046875 164.246094 L 435.949219 163.746094 C 437.347656 162.945313 438.746094 162.046875 440.144531 161.046875 "/>
<path style="fill:none;stroke-width:0.94;stroke-linecap:butt;stroke-linejoin:miter;stroke:rgb(100%,100%,100%);stroke-opacity:1;stroke-miterlimit:10;" d="M 4401.445313 4389.53125 C 4430.46875 4386.523438 4426.445313 4335.546875 4398.476563 4330.546875 C 4376.445313 4319.53125 4362.460938 4342.539063 4350.46875 4357.539063 L 4359.492188 4362.539063 C 4373.476563 4370.546875 4387.460938 4379.53125 4401.445313 4389.53125 Z M 4401.445313 4389.53125 " transform="matrix(0.1,0,0,-0.1,0,600)"/>
<path style=" stroke:none;fill-rule:nonzero;fill:rgb(96.899414%,56.098938%,11.799622%);fill-opacity:1;" d="M 441.847656 169.347656 C 442.746094 168.148438 443.746094 166.945313 444.546875 165.746094 C 448.648438 173.347656 453.046875 180.945313 455.949219 189.148438 C 458.449219 195.945313 456.949219 203.148438 455.949219 210.046875 C 454.246094 221.648438 457.746094 233.246094 462.148438 243.945313 C 467.648438 257.746094 477.246094 270.546875 490.746094 277.445313 C 497.046875 280.648438 505.449219 282.246094 511.648438 277.746094 C 512.949219 276.546875 515.148438 275.246094 514.347656 273.148438 C 512.847656 269.546875 509.148438 267.648438 505.847656 266.246094 C 497.046875 262.648438 487.246094 261.546875 478.046875 263.746094 C 487.746094 259.046875 499.546875 259.148438 509.347656 263.847656 C 512.746094 265.445313 516.046875 268.746094 515.648438 272.847656 C 514.449219 279.246094 508.847656 284.945313 502.046875 285.046875 C 491.246094 285.648438 481.648438 279.046875 474.347656 271.648438 C 466.546875 263.847656 461.449219 253.746094 457.648438 243.445313 C 454.847656 235.648438 452.648438 227.445313 452.847656 219.046875 C 453.046875 211.347656 456.046875 203.746094 454.046875 196.046875 C 451.648438 186.445313 445.746094 178.347656 441.847656 169.347656 "/>
<path style=" stroke:none;fill-rule:nonzero;fill:rgb(13.299561%,12.199402%,12.199402%);fill-opacity:1;" d="M 407.046875 311.644531 C 414.347656 311.546875 421.546875 311.347656 428.847656 311.746094 C 428.746094 362.246094 428.847656 412.746094 428.746094 463.246094 C 421.546875 463.347656 414.347656 463.246094 407.046875 463.246094 "/>
<path style="fill:none;stroke-width:0.94;stroke-linecap:butt;stroke-linejoin:miter;stroke:rgb(22.399902%,21.598816%,21.998596%);stroke-opacity:1;stroke-miterlimit:10;" d="M 4070.46875 2883.554688 C 4143.476563 2884.53125 4215.46875 2886.523438 4288.476563 2882.539063 C 4287.460938 2377.539063 4288.476563 1872.539063 4287.460938 1367.539063 C 4215.46875 1366.523438 4143.476563 1367.539063 4070.46875 1367.539063 Z M 4070.46875 2883.554688 " transform="matrix(0.1,0,0,-0.1,0,600)"/>
<path style=" stroke:none;fill-rule:nonzero;fill:rgb(13.299561%,12.199402%,12.199402%);fill-opacity:1;" d="M 11.046875 345.644531 C 28.046875 345.449219 45.046875 345.644531 62.046875 345.546875 C 76.546875 345.546875 92.546875 347.246094 103.847656 357.246094 C 117.246094 368.746094 119.046875 390.144531 109.746094 404.644531 C 103.246094 414.449219 91.246094 418.949219 79.945313 419.644531 C 94.148438 434.347656 108.945313 448.546875 123.347656 463.144531 C 112.648438 463.347656 101.847656 463.449219 91.148438 463.144531 C 83.445313 456.246094 76.746094 448.144531 69.746094 440.347656 C 59.746094 428.949219 49.445313 417.949219 39.746094 406.347656 C 51.148438 406.144531 62.746094 406.746094 73.847656 403.746094 C 79.445313 402.144531 85.148438 399.644531 89.046875 395.046875 C 93.746094 389.347656 94.445313 380.746094 90.648438 374.449219 C 87.148438 368.347656 80.445313 364.847656 73.847656 363.144531 C 66.148438 360.949219 58.046875 361.644531 50.046875 361.546875 C 44.445313 361.644531 38.847656 361.347656 33.246094 361.746094 C 33.347656 395.546875 33.347656 429.449219 33.246094 463.246094 C 25.847656 463.347656 18.445313 463.347656 11.046875 463.246094 "/>
<path style="fill:none;stroke-width:0.94;stroke-linecap:butt;stroke-linejoin:miter;stroke:rgb(22.399902%,21.598816%,21.998596%);stroke-opacity:1;stroke-miterlimit:10;" d="M 110.46875 2543.554688 C 280.46875 2545.507813 450.46875 2543.554688 620.46875 2544.53125 C 765.46875 2544.53125 925.46875 2527.539063 1038.476563 2427.539063 C 1172.460938 2312.539063 1190.46875 2098.554688 1097.460938 1953.554688 C 1032.460938 1855.507813 912.460938 1810.507813 799.453125 1803.554688 C 941.484375 1656.523438 1089.453125 1514.53125 1233.476563 1368.554688 C 1126.484375 1366.523438 1018.476563 1365.507813 911.484375 1368.554688 C 834.453125 1437.539063 767.460938 1518.554688 697.460938 1596.523438 C 597.460938 1710.507813 494.453125 1820.507813 397.460938 1936.523438 C 511.484375 1938.554688 627.460938 1932.539063 738.476563 1962.539063 C 794.453125 1978.554688 851.484375 2003.554688 890.46875 2049.53125 C 937.460938 2106.523438 944.453125 2192.539063 906.484375 2255.507813 C 871.484375 2316.523438 804.453125 2351.523438 738.476563 2368.554688 C 661.484375 2390.507813 580.46875 2383.554688 500.46875 2384.53125 C 444.453125 2383.554688 388.476563 2386.523438 332.460938 2382.539063 C 333.476563 2044.53125 333.476563 1705.507813 332.460938 1367.539063 C 258.476563 1366.523438 184.453125 1366.523438 110.46875 1367.539063 Z M 110.46875 2543.554688 " transform="matrix(0.1,0,0,-0.1,0,600)"/>
<path style=" stroke:none;fill-rule:nonzero;fill:rgb(13.299561%,12.199402%,12.199402%);fill-opacity:1;" d="M 296.648438 354.644531 C 309.046875 347.046875 324.445313 344.949219 338.648438 347.546875 C 359.148438 351.449219 377.347656 367.246094 382.945313 387.449219 C 374.945313 387.644531 367.046875 387.546875 359.148438 387.546875 C 355.746094 380.746094 351.148438 374.347656 344.445313 370.546875 C 334.945313 365.144531 322.847656 365.046875 312.746094 368.847656 C 302.546875 372.644531 295.246094 382.046875 292.148438 392.246094 C 287.246094 407.644531 290.847656 426.144531 302.746094 437.347656 C 315.445313 449.546875 337.648438 449.644531 350.445313 437.449219 C 354.148438 434.144531 356.746094 429.949219 359.046875 425.546875 C 366.945313 425.546875 374.945313 425.449219 382.847656 425.644531 C 378.148438 441.046875 366.546875 454.144531 351.945313 460.847656 C 338.445313 467.144531 322.648438 467.847656 308.445313 463.546875 C 296.347656 459.847656 285.847656 451.746094 278.945313 441.246094 C 267.945313 424.949219 265.445313 403.546875 272.046875 385.144531 C 276.445313 372.546875 285.148438 361.449219 296.648438 354.644531 "/>
<path style="fill:none;stroke-width:0.94;stroke-linecap:butt;stroke-linejoin:miter;stroke:rgb(22.399902%,21.598816%,21.998596%);stroke-opacity:1;stroke-miterlimit:10;" d="M 2966.484375 2453.554688 C 3090.46875 2529.53125 3244.453125 2550.507813 3386.484375 2524.53125 C 3591.484375 2485.507813 3773.476563 2327.539063 3829.453125 2125.507813 C 3749.453125 2123.554688 3670.46875 2124.53125 3591.484375 2124.53125 C 3557.460938 2192.539063 3511.484375 2256.523438 3444.453125 2294.53125 C 3349.453125 2348.554688 3228.476563 2349.53125 3127.460938 2311.523438 C 3025.46875 2273.554688 2952.460938 2179.53125 2921.484375 2077.539063 C 2872.460938 1923.554688 2908.476563 1738.554688 3027.460938 1626.523438 C 3154.453125 1504.53125 3376.484375 1503.554688 3504.453125 1625.507813 C 3541.484375 1658.554688 3567.460938 1700.507813 3590.46875 1744.53125 C 3669.453125 1744.53125 3749.453125 1745.507813 3828.476563 1743.554688 C 3781.484375 1589.53125 3665.46875 1458.554688 3519.453125 1391.523438 C 3384.453125 1328.554688 3226.484375 1321.523438 3084.453125 1364.53125 C 2963.476563 1401.523438 2858.476563 1482.539063 2789.453125 1587.539063 C 2679.453125 1750.507813 2654.453125 1964.53125 2720.46875 2148.554688 C 2764.453125 2274.53125 2851.484375 2385.507813 2966.484375 2453.554688 Z M 2966.484375 2453.554688 " transform="matrix(0.1,0,0,-0.1,0,600)"/>
<path style=" stroke:none;fill-rule:nonzero;fill:rgb(13.299561%,12.199402%,12.199402%);fill-opacity:1;" d="M 678.347656 350.347656 C 689.046875 346.449219 700.949219 346.046875 711.847656 349.449219 C 719.847656 351.949219 727.648438 356.546875 732.546875 363.546875 C 735.746094 368.046875 737.449219 373.648438 737.347656 379.246094 C 729.347656 379.246094 721.347656 379.449219 713.347656 379.148438 C 712.148438 373.746094 708.746094 368.746094 703.347656 366.847656 C 696.449219 364.449219 687.746094 365.046875 682.347656 370.347656 C 678.246094 374.347656 678.148438 381.746094 682.246094 385.847656 C 685.246094 388.847656 689.449219 390.347656 693.449219 391.546875 C 699.949219 393.449219 706.546875 394.746094 712.847656 397.148438 C 721.746094 400.347656 730.449219 405.246094 735.746094 413.347656 C 742.746094 423.847656 741.847656 438.546875 734.746094 448.746094 C 729.347656 456.449219 720.746094 461.449219 711.847656 463.746094 C 698.148438 467.246094 683.148438 465.847656 670.449219 459.546875 C 663.648438 456.246094 657.449219 451.148438 653.648438 444.449219 C 650.546875 439.046875 649.148438 432.746094 649.246094 426.546875 C 657.148438 426.546875 665.046875 426.546875 672.847656 426.449219 C 674.148438 432.046875 675.648438 438.046875 680.246094 441.847656 C 688.046875 448.148438 699.648438 448.847656 708.449219 444.449219 C 715.546875 441.046875 719.046875 431.246094 714.546875 424.449219 C 710.546875 418.949219 703.648438 416.648438 697.449219 414.546875 C 685.949219 410.847656 673.347656 408.347656 663.949219 400.148438 C 654.949219 392.347656 652.648438 378.347656 657.949219 367.746094 C 662.046875 359.546875 669.847656 353.546875 678.347656 350.347656 "/>
<path style="fill:none;stroke-width:0.94;stroke-linecap:butt;stroke-linejoin:miter;stroke:rgb(22.399902%,21.598816%,21.998596%);stroke-opacity:1;stroke-miterlimit:10;" d="M 6783.476563 2496.523438 C 6890.46875 2535.507813 7009.492188 2539.53125 7118.476563 2505.507813 C 7198.476563 2480.507813 7276.484375 2434.53125 7325.46875 2364.53125 C 7357.460938 2319.53125 7374.492188 2263.515625 7373.476563 2207.539063 C 7293.476563 2207.539063 7213.476563 2205.507813 7133.476563 2208.515625 C 7121.484375 2262.539063 7087.460938 2312.539063 7033.476563 2331.523438 C 6964.492188 2355.507813 6877.460938 2349.53125 6823.476563 2296.523438 C 6782.460938 2256.523438 6781.484375 2182.539063 6822.460938 2141.523438 C 6852.460938 2111.523438 6894.492188 2096.523438 6934.492188 2084.53125 C 6999.492188 2065.507813 7065.46875 2052.539063 7128.476563 2028.515625 C 7217.460938 1996.523438 7304.492188 1947.539063 7357.460938 1866.523438 C 7427.460938 1761.523438 7418.476563 1614.53125 7347.460938 1512.539063 C 7293.476563 1435.507813 7207.460938 1385.507813 7118.476563 1362.539063 C 6981.484375 1327.539063 6831.484375 1341.523438 6704.492188 1404.53125 C 6636.484375 1437.539063 6574.492188 1488.515625 6536.484375 1555.507813 C 6505.46875 1609.53125 6491.484375 1672.539063 6492.460938 1734.53125 C 6571.484375 1734.53125 6650.46875 1734.53125 6728.476563 1735.507813 C 6741.484375 1679.53125 6756.484375 1619.53125 6802.460938 1581.523438 C 6880.46875 1518.515625 6996.484375 1511.523438 7084.492188 1555.507813 C 7155.46875 1589.53125 7190.46875 1687.539063 7145.46875 1755.507813 C 7105.46875 1810.507813 7036.484375 1833.515625 6974.492188 1854.53125 C 6859.492188 1891.523438 6733.476563 1916.523438 6639.492188 1998.515625 C 6549.492188 2076.523438 6526.484375 2216.523438 6579.492188 2322.539063 C 6620.46875 2404.53125 6698.476563 2464.53125 6783.476563 2496.523438 Z M 6783.476563 2496.523438 " transform="matrix(0.1,0,0,-0.1,0,600)"/>
<path style=" stroke:none;fill-rule:nonzero;fill:rgb(13.299561%,12.199402%,12.199402%);fill-opacity:1;" d="M 522.144531 349.445313 C 529.246094 349.546875 536.449219 349.546875 543.546875 349.546875 L 543.546875 403.046875 C 543.449219 413.945313 543.046875 425.644531 548.746094 435.347656 C 552.246094 441.546875 559.046875 445.347656 566.046875 446.144531 C 575.347656 447.546875 585.746094 445.546875 592.449219 438.445313 C 599.046875 431.445313 601.144531 421.347656 601.347656 412.046875 C 601.246094 391.246094 601.347656 370.445313 601.246094 349.746094 C 608.449219 349.445313 615.644531 349.445313 622.847656 349.746094 C 622.746094 387.546875 622.847656 425.347656 622.847656 463.246094 C 616.347656 463.347656 609.746094 463.347656 603.347656 463.246094 C 603.246094 459.347656 603.347656 455.445313 603.144531 451.546875 C 598.347656 457.945313 591.347656 462.546875 583.546875 464.445313 C 566.746094 468.847656 546.847656 465.445313 534.449219 452.644531 C 525.046875 443.046875 522.449219 429.046875 522.046875 416.046875 C 522.144531 393.847656 521.949219 371.644531 522.144531 349.445313 "/>
<path style="fill:none;stroke-width:0.94;stroke-linecap:butt;stroke-linejoin:miter;stroke:rgb(22.399902%,21.598816%,21.998596%);stroke-opacity:1;stroke-miterlimit:10;" d="M 5221.445313 2505.546875 C 5292.460938 2504.53125 5364.492188 2504.53125 5435.46875 2504.53125 L 5435.46875 1969.53125 C 5434.492188 1860.546875 5430.46875 1743.554688 5487.460938 1646.523438 C 5522.460938 1584.53125 5590.46875 1546.523438 5660.46875 1538.554688 C 5753.476563 1524.53125 5857.460938 1544.53125 5924.492188 1615.546875 C 5990.46875 1685.546875 6011.445313 1786.523438 6013.476563 1879.53125 C 6012.460938 2087.539063 6013.476563 2295.546875 6012.460938 2502.539063 C 6084.492188 2505.546875 6156.445313 2505.546875 6228.476563 2502.539063 C 6227.460938 2124.53125 6228.476563 1746.523438 6228.476563 1367.539063 C 6163.476563 1366.523438 6097.460938 1366.523438 6033.476563 1367.539063 C 6032.460938 1406.523438 6033.476563 1445.546875 6031.445313 1484.53125 C 5983.476563 1420.546875 5913.476563 1374.53125 5835.46875 1355.546875 C 5667.460938 1311.523438 5468.476563 1345.546875 5344.492188 1473.554688 C 5250.46875 1569.53125 5224.492188 1709.53125 5220.46875 1839.53125 C 5221.445313 2061.523438 5219.492188 2283.554688 5221.445313 2505.546875 Z M 5221.445313 2505.546875 " transform="matrix(0.1,0,0,-0.1,0,600)"/>
<path style=" stroke:none;fill-rule:nonzero;fill:rgb(13.299561%,12.199402%,12.199402%);fill-opacity:1;" d="M 141.046875 349.644531 C 148.148438 349.449219 155.347656 349.546875 162.445313 349.644531 C 162.648438 370.347656 162.445313 391.046875 162.546875 411.746094 C 162.847656 421.144531 163.945313 431.347656 170.347656 438.746094 C 175.847656 445.144531 184.945313 446.949219 193.046875 446.449219 C 200.546875 446.046875 208.148438 442.949219 212.945313 436.949219 C 218.945313 429.347656 220.347656 419.347656 220.546875 409.949219 C 220.648438 389.847656 220.445313 369.746094 220.648438 349.644531 C 227.746094 349.546875 234.945313 349.546875 242.046875 349.644531 L 242.046875 463.246094 C 235.445313 463.347656 228.847656 463.347656 222.246094 463.246094 C 222.347656 459.347656 222.347656 455.546875 222.148438 451.644531 C 217.347656 458.046875 210.347656 462.546875 202.648438 464.449219 C 185.746094 468.847656 165.945313 465.449219 153.546875 452.546875 C 143.746094 442.449219 141.347656 427.644531 141.046875 414.046875 "/>
<path style="fill:none;stroke-width:0.94;stroke-linecap:butt;stroke-linejoin:miter;stroke:rgb(22.399902%,21.598816%,21.998596%);stroke-opacity:1;stroke-miterlimit:10;" d="M 1410.46875 2503.554688 C 1481.484375 2505.507813 1553.476563 2504.53125 1624.453125 2503.554688 C 1626.484375 2296.523438 1624.453125 2089.53125 1625.46875 1882.539063 C 1628.476563 1788.554688 1639.453125 1686.523438 1703.476563 1612.539063 C 1758.476563 1548.554688 1849.453125 1530.507813 1930.46875 1535.507813 C 2005.46875 1539.53125 2081.484375 1570.507813 2129.453125 1630.507813 C 2189.453125 1706.523438 2203.476563 1806.523438 2205.46875 1900.507813 C 2206.484375 2101.523438 2204.453125 2302.539063 2206.484375 2503.554688 C 2277.460938 2504.53125 2349.453125 2504.53125 2420.46875 2503.554688 L 2420.46875 1367.539063 C 2354.453125 1366.523438 2288.476563 1366.523438 2222.460938 1367.539063 C 2223.476563 1406.523438 2223.476563 1444.53125 2221.484375 1483.554688 C 2173.476563 1419.53125 2103.476563 1374.53125 2026.484375 1355.507813 C 1857.460938 1311.523438 1659.453125 1345.507813 1535.46875 1474.53125 C 1437.460938 1575.507813 1413.476563 1723.554688 1410.46875 1859.53125 Z M 1410.46875 2503.554688 " transform="matrix(0.1,0,0,-0.1,0,600)"/>
<path style=" stroke:none;fill-rule:nonzero;fill:rgb(13.299561%,12.199402%,12.199402%);fill-opacity:1;" d="M 440.246094 404.847656 C 453.046875 386.347656 466.144531 368.046875 479.144531 349.648438 C 487.945313 349.546875 496.847656 349.449219 505.644531 349.648438 C 492.445313 367.746094 478.347656 385.246094 464.847656 403.148438 C 480.445313 423.347656 496.746094 442.949219 512.246094 463.246094 C 503.847656 463.347656 495.445313 463.347656 487.046875 463.246094 C 485.246094 463.546875 484.347656 461.847656 483.347656 460.648438 C 469.046875 442.046875 454.644531 423.449219 440.246094 404.847656 "/>
<path style="fill:none;stroke-width:0.94;stroke-linecap:butt;stroke-linejoin:miter;stroke:rgb(22.399902%,21.598816%,21.998596%);stroke-opacity:1;stroke-miterlimit:10;" d="M 4402.460938 1951.523438 C 4530.46875 2136.523438 4661.445313 2319.53125 4791.445313 2503.515625 C 4879.453125 2504.53125 4968.476563 2505.507813 5056.445313 2503.515625 C 4924.453125 2322.539063 4783.476563 2147.539063 4648.476563 1968.515625 C 4804.453125 1766.523438 4967.460938 1570.507813 5122.460938 1367.539063 C 5038.476563 1366.523438 4954.453125 1366.523438 4870.46875 1367.539063 C 4852.460938 1364.53125 4843.476563 1381.523438 4833.476563 1393.515625 C 4690.46875 1579.53125 4546.445313 1765.507813 4402.460938 1951.523438 Z M 4402.460938 1951.523438 " transform="matrix(0.1,0,0,-0.1,0,600)"/>
<path style=" stroke:none;fill-rule:nonzero;fill:rgb(13.299561%,12.199402%,12.199402%);fill-opacity:1;" d="M 748.445313 360.644531 C 751.546875 360.347656 754.546875 360.347656 757.644531 360.644531 C 757.945313 361.046875 758.546875 361.746094 758.847656 362.144531 C 757.347656 362.546875 755.746094 362.949219 754.246094 363.246094 C 754.347656 367.246094 754.246094 371.144531 754.246094 375.046875 L 751.847656 375.046875 C 751.746094 371.144531 751.746094 367.246094 751.847656 363.246094 C 750.246094 362.949219 748.746094 362.546875 747.246094 362.144531 C 747.546875 361.746094 748.144531 361.046875 748.445313 360.644531 "/>
<path style="fill:none;stroke-width:0.94;stroke-linecap:butt;stroke-linejoin:miter;stroke:rgb(22.399902%,21.598816%,21.998596%);stroke-opacity:1;stroke-miterlimit:10;" d="M 7484.453125 2393.554688 C 7515.46875 2396.523438 7545.46875 2396.523438 7576.445313 2393.554688 C 7579.453125 2389.53125 7585.46875 2382.539063 7588.476563 2378.554688 C 7573.476563 2374.53125 7557.460938 2370.507813 7542.460938 2367.539063 C 7543.476563 2327.539063 7542.460938 2288.554688 7542.460938 2249.53125 L 7518.476563 2249.53125 C 7517.460938 2288.554688 7517.460938 2327.539063 7518.476563 2367.539063 C 7502.460938 2370.507813 7487.460938 2374.53125 7472.460938 2378.554688 C 7475.46875 2382.539063 7481.445313 2389.53125 7484.453125 2393.554688 Z M 7484.453125 2393.554688 " transform="matrix(0.1,0,0,-0.1,0,600)"/>
<path style=" stroke:none;fill-rule:nonzero;fill:rgb(13.299561%,12.199402%,12.199402%);fill-opacity:1;" d="M 764.144531 359.445313 C 766.347656 363.046875 768.144531 366.847656 770.246094 370.546875 C 772.546875 367.046875 773.847656 362.945313 776.546875 359.746094 C 777.847656 364.847656 778.949219 369.945313 780.144531 375.144531 C 779.449219 375.046875 778.046875 374.945313 777.347656 374.847656 C 776.746094 372.144531 776.144531 369.546875 775.546875 366.847656 C 773.644531 369.746094 772.046875 372.945313 770.449219 376.046875 C 768.546875 373.144531 766.949219 370.046875 765.347656 366.945313 C 764.246094 369.546875 763.847656 372.347656 762.847656 374.945313 C 762.246094 375.046875 761.144531 375.144531 760.546875 375.144531 C 761.546875 369.945313 762.644531 364.644531 764.144531 359.445313 "/>
<path style="fill:none;stroke-width:0.94;stroke-linecap:butt;stroke-linejoin:miter;stroke:rgb(22.399902%,21.598816%,21.998596%);stroke-opacity:1;stroke-miterlimit:10;" d="M 7641.445313 2405.546875 C 7663.476563 2369.53125 7681.445313 2331.523438 7702.460938 2294.53125 C 7725.46875 2329.53125 7738.476563 2370.546875 7765.46875 2402.539063 C 7778.476563 2351.523438 7789.492188 2300.546875 7801.445313 2248.554688 C 7794.492188 2249.53125 7780.46875 2250.546875 7773.476563 2251.523438 C 7767.460938 2278.554688 7761.445313 2304.53125 7755.46875 2331.523438 C 7736.445313 2302.539063 7720.46875 2270.546875 7704.492188 2239.53125 C 7685.46875 2268.554688 7669.492188 2299.53125 7653.476563 2330.546875 C 7642.460938 2304.53125 7638.476563 2276.523438 7628.476563 2250.546875 C 7622.460938 2249.53125 7611.445313 2248.554688 7605.46875 2248.554688 C 7615.46875 2300.546875 7626.445313 2353.554688 7641.445313 2405.546875 Z M 7641.445313 2405.546875 " transform="matrix(0.1,0,0,-0.1,0,600)"/>
<path style=" stroke:none;fill-rule:nonzero;fill:rgb(13.299561%,12.199402%,12.199402%);fill-opacity:1;" d="M 463.945313 497.546875 C 467.347656 497.546875 470.644531 497.546875 473.945313 497.445313 C 474.246094 508.148438 473.847656 518.945313 474.144531 529.648438 C 479.644531 529.546875 485.046875 529.546875 490.546875 529.648438 L 490.546875 536.246094 C 481.644531 536.347656 472.746094 536.347656 463.847656 536.246094 C 463.847656 523.347656 463.546875 510.445313 463.945313 497.546875 "/>
<path style="fill:none;stroke-width:0.94;stroke-linecap:butt;stroke-linejoin:miter;stroke:rgb(22.399902%,21.598816%,21.998596%);stroke-opacity:1;stroke-miterlimit:10;" d="M 4639.453125 1024.53125 C 4673.476563 1024.53125 4706.445313 1024.53125 4739.453125 1025.546875 C 4742.460938 918.515625 4738.476563 810.546875 4741.445313 703.515625 C 4796.445313 704.53125 4850.46875 704.53125 4905.46875 703.515625 L 4905.46875 637.539063 C 4816.445313 636.523438 4727.460938 636.523438 4638.476563 637.539063 C 4638.476563 766.523438 4635.46875 895.546875 4639.453125 1024.53125 Z M 4639.453125 1024.53125 " transform="matrix(0.1,0,0,-0.1,0,600)"/>
<path style=" stroke:none;fill-rule:nonzero;fill:rgb(13.299561%,12.199402%,12.199402%);fill-opacity:1;" d="M 510.046875 497.546875 C 519.648438 497.546875 529.347656 497.546875 538.945313 497.445313 C 539.046875 499.847656 539.046875 502.246094 538.945313 504.648438 C 532.648438 504.546875 526.347656 504.445313 520.046875 504.648438 L 520.046875 513.445313 C 526.046875 513.546875 532.046875 513.546875 538.148438 513.445313 C 538.347656 515.847656 538.347656 518.246094 538.148438 520.648438 C 532.046875 520.546875 526.046875 520.445313 520.046875 520.648438 L 520.046875 529.445313 C 526.347656 529.546875 532.648438 529.546875 538.945313 529.445313 C 539.046875 531.746094 539.046875 534.046875 539.046875 536.246094 C 529.347656 536.347656 519.546875 536.347656 509.847656 536.246094 C 509.847656 523.347656 509.546875 510.445313 510.046875 497.546875 "/>
<path style="fill:none;stroke-width:0.94;stroke-linecap:butt;stroke-linejoin:miter;stroke:rgb(22.399902%,21.598816%,21.998596%);stroke-opacity:1;stroke-miterlimit:10;" d="M 5100.46875 1024.53125 C 5196.484375 1024.53125 5293.476563 1024.53125 5389.453125 1025.546875 C 5390.46875 1001.523438 5390.46875 977.539063 5389.453125 953.515625 C 5326.484375 954.53125 5263.476563 955.546875 5200.46875 953.515625 L 5200.46875 865.546875 C 5260.46875 864.53125 5320.46875 864.53125 5381.484375 865.546875 C 5383.476563 841.523438 5383.476563 817.539063 5381.484375 793.515625 C 5320.46875 794.53125 5260.46875 795.546875 5200.46875 793.515625 L 5200.46875 705.546875 C 5263.476563 704.53125 5326.484375 704.53125 5389.453125 705.546875 C 5390.46875 682.539063 5390.46875 659.53125 5390.46875 637.539063 C 5293.476563 636.523438 5195.46875 636.523438 5098.476563 637.539063 C 5098.476563 766.523438 5095.46875 895.546875 5100.46875 1024.53125 Z M 5100.46875 1024.53125 " transform="matrix(0.1,0,0,-0.1,0,600)"/>
<path style=" stroke:none;fill-rule:nonzero;fill:rgb(13.299561%,12.199402%,12.199402%);fill-opacity:1;" d="M 563.945313 500.847656 C 570.046875 495.746094 579.246094 495.648438 586.246094 498.847656 C 589.945313 500.449219 592.246094 504.046875 593.046875 507.949219 C 589.644531 507.847656 585.847656 508.746094 582.644531 507.546875 C 580.746094 503.449219 574.644531 502.148438 571.546875 505.648438 C 570.144531 507.449219 571.246094 510.046875 573.347656 510.746094 C 579.246094 513.148438 586.445313 513.148438 591.246094 517.847656 C 595.546875 521.847656 594.746094 529.648438 590.046875 533.046875 C 584.644531 537.246094 577.144531 537.746094 570.546875 536.546875 C 564.945313 535.347656 559.046875 531.347656 558.644531 525.148438 C 562.046875 525.046875 565.445313 525.046875 568.945313 525.046875 C 570.945313 530.746094 578.746094 531.949219 582.847656 527.847656 C 584.644531 525.949219 583.746094 522.648438 581.347656 521.746094 C 575.847656 518.949219 569.046875 519.046875 564.046875 515.046875 C 559.546875 511.746094 559.644531 504.347656 563.945313 500.847656 "/>
<path style="fill:none;stroke-width:0.94;stroke-linecap:butt;stroke-linejoin:miter;stroke:rgb(22.399902%,21.598816%,21.998596%);stroke-opacity:1;stroke-miterlimit:10;" d="M 5639.453125 991.523438 C 5700.46875 1042.539063 5792.460938 1043.515625 5862.460938 1011.523438 C 5899.453125 995.507813 5922.460938 959.53125 5930.46875 920.507813 C 5896.445313 921.523438 5858.476563 912.539063 5826.445313 924.53125 C 5807.460938 965.507813 5746.445313 978.515625 5715.46875 943.515625 C 5701.445313 925.507813 5712.460938 899.53125 5733.476563 892.539063 C 5792.460938 868.515625 5864.453125 868.515625 5912.460938 821.523438 C 5955.46875 781.523438 5947.460938 703.515625 5900.46875 669.53125 C 5846.445313 627.539063 5771.445313 622.539063 5705.46875 634.53125 C 5649.453125 646.523438 5590.46875 686.523438 5586.445313 748.515625 C 5620.46875 749.53125 5654.453125 749.53125 5689.453125 749.53125 C 5709.453125 692.539063 5787.460938 680.507813 5828.476563 721.523438 C 5846.445313 740.507813 5837.460938 773.515625 5813.476563 782.539063 C 5758.476563 810.507813 5690.46875 809.53125 5640.46875 849.53125 C 5595.46875 882.539063 5596.445313 956.523438 5639.453125 991.523438 Z M 5639.453125 991.523438 " transform="matrix(0.1,0,0,-0.1,0,600)"/>
<path style=" stroke:none;fill-rule:nonzero;fill:rgb(13.299561%,12.199402%,12.199402%);fill-opacity:1;" d="M 613.246094 507.148438 C 613.546875 501.949219 618.644531 498.546875 623.246094 497.449219 C 629.746094 495.949219 637.546875 496.644531 642.546875 501.546875 C 644.347656 503.246094 644.945313 505.648438 645.546875 507.949219 C 642.144531 508.148438 638.746094 508.046875 635.347656 507.949219 C 633.746094 503.746094 628.347656 502.246094 624.847656 504.949219 C 622.746094 506.246094 623.246094 509.746094 625.546875 510.546875 C 630.144531 512.746094 635.445313 512.847656 639.945313 515.246094 C 643.746094 516.949219 647.046875 520.648438 646.644531 525.046875 C 646.746094 530.847656 641.546875 534.847656 636.445313 536.148438 C 629.347656 538.046875 621.144531 537.449219 615.246094 532.847656 C 612.746094 531.046875 611.746094 528.046875 610.945313 525.246094 C 614.546875 524.949219 618.046875 525.046875 621.644531 525.148438 C 623.445313 530.746094 631.046875 531.746094 635.144531 528.148438 C 637.046875 526.449219 636.644531 522.847656 634.246094 521.847656 C 628.945313 519.046875 622.445313 519.046875 617.445313 515.746094 C 614.546875 513.949219 612.847656 510.449219 613.246094 507.148438 "/>
<path style="fill:none;stroke-width:0.94;stroke-linecap:butt;stroke-linejoin:miter;stroke:rgb(22.399902%,21.598816%,21.998596%);stroke-opacity:1;stroke-miterlimit:10;" d="M 6132.460938 928.515625 C 6135.46875 980.507813 6186.445313 1014.53125 6232.460938 1025.507813 C 6297.460938 1040.507813 6375.46875 1033.554688 6425.46875 984.53125 C 6443.476563 967.539063 6449.453125 943.515625 6455.46875 920.507813 C 6421.445313 918.515625 6387.460938 919.53125 6353.476563 920.507813 C 6337.460938 962.539063 6283.476563 977.539063 6248.476563 950.507813 C 6227.460938 937.539063 6232.460938 902.539063 6255.46875 894.53125 C 6301.445313 872.539063 6354.453125 871.523438 6399.453125 847.539063 C 6437.460938 830.507813 6470.46875 793.515625 6466.445313 749.53125 C 6467.460938 691.523438 6415.46875 651.523438 6364.453125 638.515625 C 6293.476563 619.53125 6211.445313 625.507813 6152.460938 671.523438 C 6127.460938 689.53125 6117.460938 719.53125 6109.453125 747.539063 C 6145.46875 750.507813 6180.46875 749.53125 6216.445313 748.515625 C 6234.453125 692.539063 6310.46875 682.539063 6351.445313 718.515625 C 6370.46875 735.507813 6366.445313 771.523438 6342.460938 781.523438 C 6289.453125 809.53125 6224.453125 809.53125 6174.453125 842.539063 C 6145.46875 860.507813 6128.476563 895.507813 6132.460938 928.515625 Z M 6132.460938 928.515625 " transform="matrix(0.1,0,0,-0.1,0,600)"/>
<path style=" stroke:none;fill-rule:nonzero;fill:rgb(13.299561%,12.199402%,12.199402%);fill-opacity:1;" d="M 234.246094 497.644531 C 237.546875 497.546875 240.847656 497.449219 244.148438 497.546875 C 245.347656 498.347656 245.347656 500.046875 245.945313 501.246094 C 248.546875 508.847656 251.246094 516.449219 253.847656 524.046875 C 257.246094 515.347656 259.945313 506.449219 263.046875 497.644531 C 265.648438 497.546875 268.246094 497.546875 270.847656 497.644531 C 273.648438 506.546875 276.746094 515.347656 279.546875 524.148438 C 283.046875 515.449219 285.847656 506.449219 289.046875 497.546875 C 292.546875 497.546875 295.945313 497.546875 299.445313 497.644531 C 294.546875 510.648438 289.046875 523.347656 283.945313 536.246094 C 281.148438 536.046875 278.046875 537.046875 275.546875 535.746094 C 272.347656 527.648438 270.046875 519.246094 266.847656 511.148438 C 263.945313 519.546875 261.046875 527.949219 258.046875 536.347656 C 255.347656 536.347656 252.648438 536.347656 249.945313 536.246094 C 244.648438 523.449219 239.246094 510.546875 234.246094 497.644531 "/>
<path style="fill:none;stroke-width:0.94;stroke-linecap:butt;stroke-linejoin:miter;stroke:rgb(22.399902%,21.598816%,21.998596%);stroke-opacity:1;stroke-miterlimit:10;" d="M 2342.460938 1023.554688 C 2375.46875 1024.53125 2408.476563 1025.507813 2441.484375 1024.53125 C 2453.476563 1016.523438 2453.476563 999.53125 2459.453125 987.539063 C 2485.46875 911.523438 2512.460938 835.507813 2538.476563 759.53125 C 2572.460938 846.523438 2599.453125 935.507813 2630.46875 1023.554688 C 2656.484375 1024.53125 2682.460938 1024.53125 2708.476563 1023.554688 C 2736.484375 934.53125 2767.460938 846.523438 2795.46875 758.515625 C 2830.46875 845.507813 2858.476563 935.507813 2890.46875 1024.53125 C 2925.46875 1024.53125 2959.453125 1024.53125 2994.453125 1023.554688 C 2945.46875 893.515625 2890.46875 766.523438 2839.453125 637.539063 C 2811.484375 639.53125 2780.46875 629.53125 2755.46875 642.539063 C 2723.476563 723.515625 2700.46875 807.539063 2668.476563 888.515625 C 2639.453125 804.53125 2610.46875 720.507813 2580.46875 636.523438 C 2553.476563 636.523438 2526.484375 636.523438 2499.453125 637.539063 C 2446.484375 765.507813 2392.460938 894.53125 2342.460938 1023.554688 Z M 2342.460938 1023.554688 " transform="matrix(0.1,0,0,-0.1,0,600)"/>
<path style=" stroke:none;fill-rule:nonzero;fill:rgb(13.299561%,12.199402%,12.199402%);fill-opacity:1;" d="M 319.246094 497.746094 C 322.648438 497.445313 326.046875 497.445313 329.445313 497.644531 C 329.546875 510.449219 329.648438 523.347656 329.445313 536.246094 C 326.046875 536.347656 322.648438 536.347656 319.246094 536.246094 C 319.246094 523.347656 319.347656 510.546875 319.246094 497.746094 "/>
<path style="fill:none;stroke-width:0.94;stroke-linecap:butt;stroke-linejoin:miter;stroke:rgb(22.399902%,21.598816%,21.998596%);stroke-opacity:1;stroke-miterlimit:10;" d="M 3192.460938 1022.539063 C 3226.484375 1025.546875 3260.46875 1025.546875 3294.453125 1023.554688 C 3295.46875 895.507813 3296.484375 766.523438 3294.453125 637.539063 C 3260.46875 636.523438 3226.484375 636.523438 3192.460938 637.539063 C 3192.460938 766.523438 3193.476563 894.53125 3192.460938 1022.539063 Z M 3192.460938 1022.539063 " transform="matrix(0.1,0,0,-0.1,0,600)"/>
<path style=" stroke:none;fill-rule:nonzero;fill:rgb(13.299561%,12.199402%,12.199402%);fill-opacity:1;" d="M 353.847656 497.644531 C 360.546875 497.546875 367.347656 497.449219 374.046875 497.644531 C 379.746094 497.746094 385.847656 499.949219 388.847656 505.046875 C 391.347656 509.347656 389.546875 514.949219 386.046875 518.046875 C 383.347656 520.546875 379.546875 521.347656 376.148438 522.246094 C 380.945313 526.847656 385.746094 531.347656 390.347656 536.148438 C 386.347656 536.246094 382.246094 536.546875 378.246094 536.148438 C 373.148438 531.847656 368.945313 526.546875 364.148438 521.949219 C 364.046875 526.746094 364.046875 531.546875 364.046875 536.246094 C 360.648438 536.347656 357.246094 536.347656 353.847656 536.246094 C 353.746094 523.347656 353.746094 510.449219 353.847656 497.644531 "/>
<path style="fill:none;stroke-width:0.94;stroke-linecap:butt;stroke-linejoin:miter;stroke:rgb(22.399902%,21.598816%,21.998596%);stroke-opacity:1;stroke-miterlimit:10;" d="M 3538.476563 1023.554688 C 3605.46875 1024.53125 3673.476563 1025.507813 3740.46875 1023.554688 C 3797.460938 1022.539063 3858.476563 1000.507813 3888.476563 949.53125 C 3913.476563 906.523438 3895.46875 850.507813 3860.46875 819.53125 C 3833.476563 794.53125 3795.46875 786.523438 3761.484375 777.539063 C 3809.453125 731.523438 3857.460938 686.523438 3903.476563 638.515625 C 3863.476563 637.539063 3822.460938 634.53125 3782.460938 638.515625 C 3731.484375 681.523438 3689.453125 734.53125 3641.484375 780.507813 C 3640.46875 732.539063 3640.46875 684.53125 3640.46875 637.539063 C 3606.484375 636.523438 3572.460938 636.523438 3538.476563 637.539063 C 3537.460938 766.523438 3537.460938 895.507813 3538.476563 1023.554688 Z M 3538.476563 1023.554688 " transform="matrix(0.1,0,0,-0.1,0,600)"/>
<path style=" stroke:none;fill-rule:nonzero;fill:rgb(13.299561%,12.199402%,12.199402%);fill-opacity:1;" d="M 410.246094 497.746094 C 420.144531 497.445313 430.046875 497.445313 439.847656 497.746094 C 439.847656 499.945313 439.746094 502.246094 439.746094 504.546875 C 433.347656 504.546875 426.945313 504.449219 420.644531 504.644531 C 420.546875 507.546875 420.546875 510.449219 420.546875 513.347656 C 426.644531 513.847656 432.746094 513.246094 438.847656 513.746094 C 438.847656 516.046875 438.746094 518.246094 438.746094 520.546875 C 432.746094 520.546875 426.644531 520.546875 420.644531 520.644531 C 420.546875 523.546875 420.546875 526.449219 420.546875 529.347656 C 426.945313 529.847656 433.445313 529.246094 439.847656 529.746094 C 439.847656 531.847656 439.746094 534.046875 439.847656 536.144531 C 429.945313 536.347656 420.144531 536.347656 410.246094 536.246094 C 410.246094 523.347656 410.347656 510.546875 410.246094 497.746094 "/>
<path style="fill:none;stroke-width:0.94;stroke-linecap:butt;stroke-linejoin:miter;stroke:rgb(22.399902%,21.598816%,21.998596%);stroke-opacity:1;stroke-miterlimit:10;" d="M 4102.460938 1022.539063 C 4201.445313 1025.546875 4300.46875 1025.546875 4398.476563 1022.539063 C 4398.476563 1000.546875 4397.460938 977.539063 4397.460938 954.53125 C 4333.476563 954.53125 4269.453125 955.507813 4206.445313 953.554688 C 4205.46875 924.53125 4205.46875 895.507813 4205.46875 866.523438 C 4266.445313 861.523438 4327.460938 867.539063 4388.476563 862.539063 C 4388.476563 839.53125 4387.460938 817.539063 4387.460938 794.53125 C 4327.460938 794.53125 4266.445313 794.53125 4206.445313 793.554688 C 4205.46875 764.53125 4205.46875 735.507813 4205.46875 706.523438 C 4269.453125 701.523438 4334.453125 707.539063 4398.476563 702.539063 C 4398.476563 681.523438 4397.460938 659.53125 4398.476563 638.554688 C 4299.453125 636.523438 4201.445313 636.523438 4102.460938 637.539063 C 4102.460938 766.523438 4103.476563 894.53125 4102.460938 1022.539063 Z M 4102.460938 1022.539063 " transform="matrix(0.1,0,0,-0.1,0,600)"/>
<path style=" stroke:none;fill-rule:nonzero;fill:rgb(100%,100%,100%);fill-opacity:1;" d="M 364.046875 504.648438 C 368.746094 504.746094 374.347656 503.449219 378.246094 506.847656 C 380.746094 508.847656 379.847656 512.847656 377.246094 514.347656 C 373.347656 516.648438 368.445313 515.949219 364.046875 516.046875 "/>
<path style="fill:none;stroke-width:0.94;stroke-linecap:butt;stroke-linejoin:miter;stroke:rgb(100%,100%,100%);stroke-opacity:1;stroke-miterlimit:10;" d="M 3640.46875 953.515625 C 3687.460938 952.539063 3743.476563 965.507813 3782.460938 931.523438 C 3807.460938 911.523438 3798.476563 871.523438 3772.460938 856.523438 C 3733.476563 833.515625 3684.453125 840.507813 3640.46875 839.53125 Z M 3640.46875 953.515625 " transform="matrix(0.1,0,0,-0.1,0,600)"/>
</g>
</svg>
