<?xml version="1.0" encoding="utf-8"?>
<!-- Generator: Adobe Illustrator 16.0.0, SVG Export Plug-In . SVG Version: 6.00 Build 0)  -->
<!DOCTYPE svg PUBLIC "-//W3C//DTD SVG 1.1//EN" "http://www.w3.org/Graphics/SVG/1.1/DTD/svg11.dtd">
<svg version="1.1" id="Layer_1" xmlns="http://www.w3.org/2000/svg" xmlns:xlink="http://www.w3.org/1999/xlink" x="0px" y="0px"
	 width="200px" height="200px" viewBox="0 0 200 200" enable-background="new 0 0 200 200" xml:space="preserve">
<path id="text3303_1_" fill="#959595" d="M54.74,131.979v3.69c-0.865-0.428-1.71-0.751-2.534-0.969
	c-0.823-0.218-1.601-0.326-2.333-0.326c-0.971,0-1.689,0.147-2.154,0.442c-0.465,0.295-0.696,0.756-0.696,1.379
	c0,0.467,0.156,0.832,0.469,1.092c0.313,0.261,0.881,0.484,1.706,0.673l1.731,0.386c1.753,0.391,2.999,0.98,3.738,1.775
	c0.739,0.794,1.108,1.924,1.108,3.388c0,1.925-0.516,3.354-1.547,4.292c-1.031,0.939-2.606,1.408-4.725,1.408
	c-1,0-2.002-0.104-3.009-0.314c-1.006-0.211-2.014-0.521-3.02-0.934v-3.798c1.006,0.591,1.979,1.038,2.919,1.338
	s1.847,0.448,2.719,0.448c0.887,0,1.566-0.162,2.038-0.49c0.471-0.326,0.707-0.794,0.707-1.4c0-0.547-0.161-0.967-0.48-1.263
	c-0.321-0.296-0.959-0.562-1.917-0.794l-1.573-0.386c-1.577-0.374-2.729-0.97-3.458-1.787s-1.092-1.921-1.092-3.308
	c0-1.735,0.506-3.071,1.52-4.006c1.014-0.936,2.471-1.402,4.371-1.402c0.866,0,1.756,0.072,2.672,0.217
	C52.815,131.477,53.762,131.689,54.74,131.979L54.74,131.979z M68.741,136.195v3.412c-0.514-0.39-1.029-0.678-1.547-0.864
	c-0.517-0.187-1.054-0.279-1.61-0.279c-1.055,0-1.878,0.339-2.465,1.021c-0.588,0.683-0.881,1.635-0.881,2.856
	c0,1.224,0.293,2.175,0.881,2.854c0.587,0.683,1.41,1.023,2.465,1.023c0.591,0,1.153-0.097,1.685-0.293
	c0.531-0.193,1.022-0.48,1.472-0.863v3.424c-0.591,0.24-1.191,0.422-1.8,0.543c-0.609,0.119-1.219,0.181-1.832,0.181
	c-2.133,0-3.801-0.604-5.004-1.815c-1.204-1.211-1.806-2.896-1.806-5.054c0-2.155,0.602-3.841,1.806-5.053
	c1.204-1.21,2.871-1.815,5.004-1.815c0.619,0,1.23,0.06,1.832,0.182C67.543,135.773,68.143,135.955,68.741,136.195L68.741,136.195z
	 M83.915,140.904v7.968h-3.802v-1.298v-4.777c0-1.145-0.022-1.932-0.068-2.359c-0.046-0.429-0.125-0.744-0.238-0.945
	c-0.147-0.271-0.349-0.485-0.602-0.639c-0.253-0.149-0.542-0.228-0.865-0.228c-0.789,0-1.408,0.338-1.859,1.011
	c-0.45,0.674-0.675,1.606-0.675,2.799v6.438h-3.78v-18.18h3.78v7.011c0.57-0.765,1.175-1.326,1.816-1.688
	c0.64-0.36,1.348-0.543,2.122-0.543c1.366,0,2.402,0.463,3.109,1.391C83.56,137.788,83.915,139.137,83.915,140.904L83.915,140.904z
	 M87.44,135.788h3.78v13.084h-3.78V135.788z M87.44,130.693h3.78v3.41h-3.78V130.693z M106.764,140.904v7.968h-3.802v-1.298v-4.803
	c0-1.127-0.022-1.906-0.069-2.334c-0.045-0.43-0.123-0.744-0.236-0.946c-0.148-0.272-0.348-0.485-0.602-0.638
	c-0.255-0.15-0.543-0.229-0.865-0.229c-0.791,0-1.41,0.338-1.859,1.011c-0.45,0.675-0.676,1.606-0.676,2.798v6.438h-3.78v-13.084
	h3.78v1.915c0.57-0.764,1.175-1.326,1.816-1.688c0.639-0.361,1.348-0.545,2.122-0.545c1.366,0,2.402,0.465,3.109,1.391
	C106.409,137.788,106.764,139.137,106.764,140.904L106.764,140.904z M118.335,137.703v-7.01h3.802v18.179h-3.802v-1.894
	c-0.521,0.771-1.095,1.336-1.722,1.693c-0.627,0.358-1.352,0.537-2.176,0.537c-1.457,0-2.652-0.641-3.59-1.922
	c-0.936-1.281-1.404-2.93-1.404-4.947c0-2.017,0.47-3.666,1.404-4.947c0.938-1.281,2.133-1.922,3.59-1.922
	c0.816,0,1.541,0.184,2.17,0.545C117.238,136.377,117.814,136.939,118.335,137.703L118.335,137.703z M115.843,146.173
	c0.81,0,1.429-0.327,1.854-0.979c0.426-0.655,0.639-1.604,0.639-2.853c0-1.245-0.213-2.194-0.639-2.85s-1.045-0.981-1.854-0.981
	c-0.803,0-1.416,0.327-1.842,0.981c-0.427,0.653-0.64,1.604-0.64,2.85c0,1.247,0.213,2.196,0.64,2.853
	C114.427,145.846,115.04,146.173,115.843,146.173L115.843,146.173z M125.79,130.693h3.778v18.179h-3.778V130.693z M145.027,142.294
	v1.192h-8.838c0.09,0.979,0.412,1.718,0.961,2.207c0.55,0.49,1.315,0.734,2.302,0.734c0.796,0,1.61-0.129,2.442-0.39
	c0.836-0.263,1.692-0.656,2.572-1.187v3.224c-0.895,0.376-1.787,0.657-2.683,0.848c-0.894,0.191-1.787,0.286-2.683,0.286
	c-2.14,0-3.803-0.602-4.988-1.805c-1.187-1.204-1.778-2.893-1.778-5.064c0-2.133,0.582-3.812,1.748-5.033
	c1.164-1.224,2.769-1.836,4.81-1.836c1.857,0,3.344,0.619,4.461,1.858C144.471,138.566,145.027,140.223,145.027,142.294
	L145.027,142.294z M141.143,140.904c0-0.793-0.209-1.437-0.629-1.922c-0.418-0.487-0.966-0.73-1.642-0.73
	c-0.731,0-1.327,0.229-1.785,0.684c-0.457,0.455-0.741,1.111-0.854,1.97L141.143,140.904L141.143,140.904z M156.663,139.352
	c-0.331-0.172-0.659-0.299-0.987-0.381c-0.326-0.082-0.656-0.123-0.986-0.123c-0.973,0-1.719,0.346-2.244,1.033
	c-0.523,0.689-0.786,1.678-0.786,2.962v6.029h-3.78v-13.084h3.78v2.149c0.485-0.856,1.044-1.481,1.674-1.875
	c0.629-0.394,1.385-0.592,2.265-0.592c0.127,0,0.264,0.008,0.411,0.019c0.148,0.012,0.363,0.038,0.646,0.075L156.663,139.352z"/>
<linearGradient id="path3309_2_" gradientUnits="userSpaceOnUse" x1="384.0723" y1="344.9834" x2="391.5787" y2="353.6148" gradientTransform="matrix(5.4658 0 0 5.4658 -2018.6743 -1819.6584)">
	<stop  offset="0" style="stop-color:#FAFAFA"/>
	<stop  offset="0.6411" style="stop-color:#C4C4C4"/>
	<stop  offset="1" style="stop-color:#F4F4F4"/>
</linearGradient>
<linearGradient id="path3309_3_" gradientUnits="userSpaceOnUse" x1="382.1074" y1="344.7119" x2="392.8583" y2="353.1502" gradientTransform="matrix(5.4658 0 0 5.4658 -2018.6743 -1819.6584)">
	<stop  offset="0" style="stop-color:#D5D5D5"/>
	<stop  offset="0.6584" style="stop-color:#262626"/>
	<stop  offset="1" style="stop-color:#B8B8B8"/>
</linearGradient>
<path id="path3309_1_" fill="url(#path3309_2_)" stroke="url(#path3309_3_)" stroke-width="0.7859" stroke-linejoin="bevel" d="
	M99.629,50.79c-20.346,0-37.059,16.713-37.059,37.058s16.713,37.058,37.059,37.058s37.033-16.713,37.033-37.058
	C136.662,67.502,119.975,50.79,99.629,50.79z M99.629,70.436c9.714,0,17.387,7.697,17.387,17.412
	c0,9.715-7.673,17.412-17.387,17.412c-9.716,0-17.412-7.697-17.412-17.412C82.217,78.133,89.914,70.436,99.629,70.436z"/>
<linearGradient id="path3315_2_" gradientUnits="userSpaceOnUse" x1="386.2383" y1="353.3887" x2="388.0061" y2="356.6177" gradientTransform="matrix(5.2927 0 0 5.2927 -1953.8885 -1770.7292)">
	<stop  offset="0" style="stop-color:#818181"/>
	<stop  offset="1" style="stop-color:#F2F2F2"/>
</linearGradient>
<linearGradient id="path3315_3_" gradientUnits="userSpaceOnUse" x1="389.5771" y1="353.7744" x2="389.8432" y2="353.5777" gradientTransform="matrix(5.2927 0 0 5.2927 -1953.8885 -1770.7292)">
	<stop  offset="0" style="stop-color:#D1D1D1"/>
	<stop  offset="1" style="stop-color:#262626"/>
</linearGradient>
<path id="path3315_1_" fill="url(#path3315_2_)" stroke="url(#path3315_3_)" stroke-width="0.761" stroke-linejoin="bevel" d="
	M79.009,116.501l20.716-30.266l20.451,30.31"/>
<linearGradient id="path3355_2_" gradientUnits="userSpaceOnUse" x1="386.7129" y1="355.9609" x2="388.4806" y2="359.1899" gradientTransform="matrix(5.1159 0 0 5.1159 -1888.4525 -1720.9489)">
	<stop  offset="0" style="stop-color:#818181"/>
	<stop  offset="1" style="stop-color:#F2F2F2"/>
</linearGradient>
<path id="path3355_1_" fill="url(#path3355_2_)" d="M120.66,117.775c-13.979,9.357-29.473,8.399-42.147-0.051L99.72,86.741
	L120.66,117.775z"/>
</svg>
