<?xml version="1.0" encoding="utf-8"?>
<!-- Generator: Adobe Illustrator 19.2.1, SVG Export Plug-In . SVG Version: 6.00 Build 0)  -->
<svg version="1.1" id="layer" xmlns="http://www.w3.org/2000/svg" xmlns:xlink="http://www.w3.org/1999/xlink" x="0px" y="0px"
	 viewBox="0 0 652 652" style="enable-background:new 0 0 652 652;" xml:space="preserve">
<style type="text/css">
	.st0{fill:#221E1F;}
	.st1{fill:#EA7200;}
</style>
<polyline class="st0" points="455.1,335.9 483.6,305.2 469.7,305.1 441.1,335.9 473,373.8 486.4,373.8 "/>
<polyline class="st0" points="624,296.6 621.9,302.1 619.8,296.6 617,296.6 617,304.9 619,304.9 619,299 619,299 621.2,304.9 
	622.6,304.9 624.7,299 624.8,299 624.8,304.9 626.7,304.9 626.7,296.6 "/>
<polyline class="st0" points="609.1,296.6 609.1,298.2 611.5,298.2 611.5,304.9 613.6,304.9 613.6,298.2 615.9,298.2 615.9,296.6 
	"/>
<g>
	<path class="st0" d="M333.3,346.6c0,9.5-7.8,17.3-17.3,17.3c-9.5,0-17.3-7.8-17.3-17.3v-41.2h-11v41.2c0,15.6,12.7,28.3,28.3,28.3
		c15.6,0,28.3-12.7,28.3-28.3v-41.2h-11"/>
	<path class="st0" d="M388.6,315.8c7.7,0,14.9,3.7,19.4,9.9l10.3-4.3c-6.4-10.4-17.5-16.5-29.7-16.6h-0.3c-0.3,0-0.6,0-0.9,0l-0.3,0
		c-18.4,1.2-32.8,16.6-32.8,35c0,18.4,14.4,33.8,32.8,35l0.3,0l0.5,0c0.1,0,0.3,0,0.4,0l0.3,0c12.2,0,23.2-6.2,29.7-16.6l-10.3-4.3
		c-4.5,6.2-11.8,9.9-19.4,9.9c-0.2,0-0.4,0-0.6,0l-0.2,0c-12.6-0.9-22.4-11.4-22.4-24C365.4,326.8,375.6,316.2,388.6,315.8"/>
	<rect x="430" y="305" class="st0" width="11.1" height="68.7"/>
	<path class="st0" d="M539.9,346.6c0,9.5-7.8,17.3-17.3,17.3c-9.5,0-17.3-7.8-17.3-17.3v-41.5h-11v41.5c0,15.6,12.7,28.3,28.3,28.3
		c15.6,0,28.3-12.7,28.3-28.3v-41.5h-11"/>
	<path class="st0" d="M274.9,324.9L274.9,324.9c-0.1-12.7-10.3-19.8-23.1-19.8H220v68.5h11.1v-24h0c0,0,0.1-14.1,0.1-14v-10.8h0
		v-9.5h20.7c7.8,0,13.6,2.9,13.6,9.5c0,7.8-5.8,10.7-13.6,10.7h-20.7l9.5,11.9l21.2,26.3h14.9l-23-27.2
		C266.4,346.6,274.9,337.6,274.9,324.9"/>
	<path class="st0" d="M588.9,334.5c-5.3-1.5-9.1-3.2-11.4-4.9c-2.3-1.7-3.4-3.9-3.4-6.5c0-2.9,1-5.3,3.1-7.1c2.1-1.8,5.1-2.7,9-2.7
		c4,0,7.2,1.1,9.6,3.2c2.4,2.1,3.6,5,3.6,8.6h11l0.1-0.3c0.2-5.9-2-10.8-6.4-14.8c-4.5-4-10.4-6-17.8-6c-6.9,0-12.6,1.8-17,5.4
		c-4.4,3.6-6.6,8.2-6.6,13.7c0,5.3,2,9.7,6,13c4,3.3,9.7,6,17.1,8c5.2,1.5,8.8,3.1,10.8,4.9c2,1.8,3,4.2,3,7c0,2.9-1.1,5.3-3.4,7
		c-2.3,1.7-5.4,2.6-9.5,2.6c-4.1,0-7.6-1-10.4-3.1c-2.9-2.1-4.3-5.2-4.3-9.3H561l-0.1,0.3c-0.2,6.8,2.4,12,7.6,15.7
		c5.2,3.7,11.3,5.6,18.3,5.6c7.3,0,13.1-1.7,17.6-5.1c4.5-3.4,6.7-8,6.7-13.7c0-5.4-1.9-9.9-5.7-13.3
		C601.6,339.3,596.1,336.5,588.9,334.5"/>
	<path class="st0" d="M144.9,286.5c0.9,1,1.7,1.9,2.6,2.7C146.6,288.4,145.8,287.5,144.9,286.5"/>
	<path class="st1" d="M247.2,261.5l3.6-2.1c1.5-0.9,2-2.9,1.1-4.4l0,0c-0.9-1.5-2.8-1.9-4.3-1.1l-3.7,2.2c-0.1,0-0.2,0.1-0.2,0.1
		l-27.5,19.4l30.8-14C247,261.6,247.1,261.6,247.2,261.5"/>
	<path class="st1" d="M250.4,271.1l-32.2,9.5l33.6-3.4c0.1,0,0.2,0,0.3,0l4.1-0.9c1.7-0.4,2.9-2.1,2.4-3.8c-0.4-1.7-2.1-2.7-3.7-2.4
		l-4.3,0.9C250.5,271,250.5,271,250.4,271.1"/>
	<path class="st1" d="M255.5,287.3l-4.3-0.5c-0.1,0-0.2,0-0.3,0l-33.6-1.4l32.9,7.8c0.1,0,0.2,0,0.3,0.1l4.1,0.5
		c1.8,0.2,3.4-1.1,3.6-2.8v0C258.5,289.1,257.3,287.5,255.5,287.3"/>
	<path class="st0" d="M199.7,267.7c0,0,8.6-4.1,17.2-8.7c8.6-4.6,3.5-11.2,0.9-11.7c-2.6-0.5-13.7,1.5-13.7,1.5s-11.5,2-20.3,2.2
		c-8.8,0.2-11.6-6.2-11.6-6.2s-4-7.4-5.7-11c-1.7-3.6-2.5-4.3-5.4-2.9c-2.3,1.1,1.2,9.2,1.2,9.2s2.1,5.1,3.1,7.3
		c1,2.3,1.3,4.1-0.9,5.1c-2.1,1-3.6-3-3.6-3l-3.5-6.9c0,0-2.1-3.6-2.7-4.5c-1.8-2.4-12.2,2.2-13.1,4.9c-0.6,1.7,1.6,8.2,7.4,3
		c0.6-0.6,0.7,0.5,0.9,0.8c0.9,2,1.8,4.2,2.3,5.5c0.4,1-0.7,4.2,1.5,9.7c-0.5,1.4-2.9,2.3-4.2,3.5c-1,0.9-2.4,1.8-4.1,2.9
		c0,0,0,0,0,0l-2.2,1.3c-0.1,0-0.1,0-0.2,0.1c-0.1,0.1-0.2,0.1-0.3,0.2c0,0,0,0,0,0c-1.8,1.9,2.5,9.1,9.6,16.1
		c5.9,5.8,12.1,9.8,15,9.9c0.6,0,1.1-0.1,1.4-0.5c0.1-0.1,0.2-0.2,0.2-0.4c0-0.1,0.1-0.2,0.1-0.3c0-0.1,0.1-0.2,0.1-0.3
		c0.1-0.2,0.1-0.4,0.2-0.6c0,0,0,0,0,0c0.3-0.7,0.6-1.4,1-2.1c0.6-1,4.2-4.2,7.7-3c8.5,3,21.3,14,23.1,14.3c2.4,0.4,5.1-0.6,6.2-3.1
		c0.9-2-0.7-4.2-1.1-4.9c-0.7-1.2-3-4-3-4l-6.1-6.9c0,0-6.1-5.9-6.2-9.4C191.1,272.5,199.7,267.7,199.7,267.7"/>
	<path class="st0" d="M148.4,290.2c-0.3-0.3-0.6-0.6-1-1c-0.8-0.8-1.7-1.7-2.6-2.7c0,0-0.1-0.1-0.1-0.2c-0.2-0.2-0.4-0.4-0.5-0.6
		c-0.2-0.2-0.3-0.4-0.5-0.6c0,0-0.1-0.1-0.1-0.1c-3.3-3.9-6.4-8.4-7-12.5c0,0,0,0,0,0c0,0,0-0.1,0-0.1c0,0,0,0,0,0
		c-2.5,1-11.3,3.2-14.2,4.2c-3.3,1.2-8.2,1.9-12.6,2.2c-5,0.3-14.9-0.8-20.2-1.2c-3-0.2-6.5-0.2-10.1,0.4c-5.9,1-14.1,5.3-15,5.7
		c-3.8,1.4-12.5,4.5-22.2,0.4c-14-5-12.1-22.4-13.3-21.8c-1.5,0.7-3.8,9.6-0.9,17.2c1,2.7,2.7,5.1,4.5,7.2c1.5,1.8,4.8,3.9,8.4,5.2
		c1.6,0.6,3.3,1,4.7,1.4c0.8,0.2,4,1.3,6.2,3.2c1.8,1.5,2.9,3.7,2.6,4.5c-5.3,15.5-1.9,26.8-1.9,27.7c0.4,11.6-7.4,81.4-7.2,82.2
		c0.1,0.2-0.2,1,0.2,1.7c0.5,1,1.6,2,2.1,2.8c0.9,1.3,1.2,3,2.7,3.2c6,0.8,9.2,0.1,8.7-4.4c-0.1-0.7-0.5-2-1.7-2.7
		c-1.1-0.7-3-0.8-3.8-1.8c-1.5-1.8-1.3-4.8-1.1-6.2c1-6.5,2.8-18.3,4-26.1c0.7-4.5,3.6-12.5,4.7-14.6c6.6-12.6,10.4-22.5,12.5-28.3
		c0.6-1.8,3.1-1.1,3,0.7c-0.1,1.9-1.6,5.3-1.8,5.6c-0.4,0.5-0.6,1.2-0.6,1.8c0.2,7.2,2.7,38.8,2.5,44.8c-0.2,7.7-0.4,12.7-0.8,15.3
		c-0.1,1.1,1.8,3.3,3.2,4.4c1.3,1,1.8,2.7,2.3,2.8c0.7,0.1,3.2,0.3,5.4,0.1c2.1-0.2,3.8-0.8,4-1.4c0.1-0.4-0.3-3.3-1.2-4.1
		c-1.2-1.2-3.5-2.3-4.3-2.7c-2.3-1-2-13.3-2-13.3l4.7-34.6c0,0,10.5-21.8,16.8-24.7c11.6-2.8,21.8-0.9,21.8-0.9s11.9,3.4,14.9,16.6
		c2.8,12.2,6.6,50.4,7.8,62.8c0.2,2.4,0.6,4.3,0.9,4.5c0.7,0.5,2.8,1.2,3.1,2.7c0.3,1.5,0.6,3.2,2.2,3.9c1.1,0,2.9,0.3,5.5,0.3
		c1.6,0,3.3,0.1,4.1-0.8c0.4-0.4,0.2-3.4,0.2-3.4c0-0.2-0.2-0.6-0.4-1.1c-0.5-0.9-1.4-2-2.5-2.4c-0.9-0.4-2.4-0.5-3.2-0.9
		c-0.3-0.1-1-1.1-1.2-1.5c-2.6-4.8-3.3-11.5-3.8-14.5c-2.4-13.8,3-59.5,3.3-62.7c0,0,1.1-1.1,2.3-2.7c0.2-0.2,0.5-0.6,0.5-0.6
		c0.7,3.8,0,9.3,1,15.5c0.7,5,1.7,10.5,2.6,15.7c2.2,12.2,5,44,7.3,45.8c0.1,0.1,1.6,0.3,1.6,0.5c0.3,1,0,3.3,0.7,3.6
		c4.1,1,8.5,1.1,10-0.6c0.6-0.6,0.3-2.6,0.4-3.7c0-0.4-0.1-1.4-1.4-2.3c-1-0.7-3-0.4-4-1.2c-0.7-0.6-0.8-1.2-1.2-2.4
		c-2.9-8-3.3-23.9-4.1-31.8c-0.8-8.1-1.3-17.3-1.1-26.3c0.2-9.6,1.5-17.8,0.2-24.6c-1.9-9.6-4.7-14.5-4.7-14.5s0-0.2,0-0.4
		c-0.2,0-0.3,0-0.5,0C160.5,301.4,151.8,293.5,148.4,290.2"/>
	<path class="st1" d="M169.3,294.5c0,0.1,0,0.2-0.1,0.3c0,0.1-0.1,0.2-0.1,0.3c-0.1,0.1-0.1,0.3-0.2,0.4c-0.3,0.3-0.8,0.5-1.4,0.5
		c-2.9-0.1-9.1-4.1-15-9.9c-7.1-7-11.4-14.2-9.6-16.1c0,0,0,0,0,0c0.1-0.1,0.2-0.1,0.3-0.2c0,0,0.1,0,0.2-0.1l2.2-1.3c0,0,0,0,0,0
		c-1.1-0.6-2-0.9-2.8-0.8c-0.4,0-3.7,1.8-4.5,2.4c-1.2,0.9-1.8,1.7-1.7,2.4c0,0,0,0,0,0.1c0,0,0,0,0,0.1c0.6,4.1,3.7,8.6,7,12.5
		c0,0,0.1,0.1,0.1,0.1c0.2,0.2,0.4,0.4,0.5,0.6c0.2,0.2,0.4,0.4,0.5,0.6c0,0,0.1,0.1,0.1,0.1c0.9,1,1.7,1.9,2.6,2.7
		c0.3,0.3,0.6,0.6,1,1c3.4,3.4,12.1,11.2,18.8,11.4c0.2,0,0.3,0,0.5,0c0.1,0,0.2,0,0.3,0c0.1,0,0.2,0,0.3,0c1-0.4,1.1-1,1.1-1
		s0.9-3.9,0.9-5c0-0.6-0.4-1.2-0.7-1.5c0,0,0,0,0,0C169.5,294.1,169.4,294.3,169.3,294.5"/>
	<path class="st1" d="M230.1,414l-0.7-2.4h-0.1c-0.8,1-1.7,1.8-2.5,2.1c-0.8,0.4-1.9,0.6-3.2,0.6c-1.7,0-3-0.5-4-1.4
		c-1-0.9-1.4-2.2-1.4-3.9c0-1.8,0.7-3.1,2-4c1.3-0.9,3.3-1.4,6-1.5l3-0.1v-0.9c0-1.1-0.3-1.9-0.8-2.5c-0.5-0.5-1.3-0.8-2.4-0.8
		c-0.9,0-1.7,0.1-2.5,0.4c-0.8,0.3-1.6,0.6-2.3,0.9l-1.2-2.6c0.9-0.5,2-0.9,3.1-1.1c1.1-0.3,2.2-0.4,3.2-0.4c2.2,0,3.9,0.5,5,1.4
		c1.1,1,1.7,2.5,1.7,4.5V414 M224.6,411.5c1.3,0,2.4-0.4,3.2-1.1c0.8-0.7,1.2-1.8,1.2-3.1v-1.5l-2.2,0.1c-1.7,0.1-3,0.3-3.8,0.9
		c-0.8,0.5-1.2,1.3-1.2,2.4c0,0.8,0.2,1.4,0.7,1.8C223,411.3,223.7,411.5,224.6,411.5"/>
	<path class="st1" d="M260.1,414h-3.7v-10.6c0-1.3-0.3-2.3-0.8-3c-0.5-0.7-1.4-1-2.6-1c-1.5,0-2.7,0.5-3.4,1.4
		c-0.7,0.9-1.1,2.4-1.1,4.6v8.6h-3.7v-17.3h2.9l0.5,2.3h0.2c0.5-0.8,1.2-1.5,2.2-1.9c1-0.5,2-0.7,3.2-0.7c4.1,0,6.2,2.1,6.2,6.3"/>
	<path class="st1" d="M302.1,414l-2.3-6.3h-8.7l-2.2,6.3h-3.9l8.5-22.9h4.1l8.5,22.9 M298.8,404.4l-2.1-6.2c-0.2-0.4-0.4-1.1-0.6-2
		c-0.3-0.9-0.5-1.5-0.6-2c-0.3,1.3-0.7,2.7-1.2,4.2l-2.1,5.9H298.8z"/>
	<path class="st1" d="M319.8,404.9v9.1h-3.7v-22.8h6.5c2.9,0,5.1,0.5,6.5,1.7c1.4,1.1,2.1,2.8,2.1,5c0,2.8-1.5,4.9-4.4,6.1l6.5,10.1
		H329l-5.5-9.1 M319.8,401.8h2.6c1.7,0,3-0.3,3.8-1c0.8-0.6,1.2-1.6,1.2-2.9c0-1.3-0.4-2.2-1.3-2.8c-0.8-0.6-2.1-0.8-3.8-0.8h-2.5
		V401.8z"/>
	<path class="st1" d="M347.3,404.9v9.1h-3.7v-22.8h6.5c2.9,0,5.1,0.5,6.5,1.7c1.4,1.1,2.1,2.8,2.1,5c0,2.8-1.5,4.9-4.4,6.1l6.5,10.1
		h-4.3l-5.5-9.1 M347.3,401.8h2.6c1.7,0,3-0.3,3.8-1c0.8-0.6,1.2-1.6,1.2-2.9c0-1.3-0.4-2.2-1.3-2.8c-0.8-0.6-2.1-0.8-3.8-0.8h-2.5
		V401.8z"/>
	<rect x="371" y="391.2" class="st1" width="3.7" height="22.8"/>
	<path class="st1" d="M401,407.8c0,2-0.7,3.6-2.2,4.8c-1.5,1.2-3.5,1.7-6.1,1.7c-2.6,0-4.7-0.4-6.3-1.2v-3.5c1,0.5,2.1,0.9,3.3,1.2
		c1.2,0.3,2.3,0.4,3.3,0.4c1.5,0,2.6-0.3,3.3-0.8c0.7-0.6,1.1-1.3,1.1-2.3c0-0.9-0.3-1.6-1-2.2c-0.6-0.6-2-1.3-4-2.1
		c-2.1-0.8-3.6-1.8-4.4-2.9c-0.8-1.1-1.3-2.4-1.3-3.9c0-1.9,0.7-3.4,2-4.5c1.3-1.1,3.2-1.6,5.4-1.6c2.2,0,4.4,0.5,6.5,1.4l-1.2,3
		c-2-0.9-3.8-1.3-5.4-1.3c-1.2,0-2.1,0.3-2.7,0.8c-0.6,0.5-0.9,1.2-0.9,2.1c0,0.6,0.1,1.1,0.4,1.5c0.2,0.4,0.7,0.8,1.2,1.2
		c0.6,0.4,1.6,0.9,3.1,1.5c1.7,0.7,2.9,1.4,3.7,1.9c0.8,0.6,1.4,1.3,1.7,2C400.8,405.9,401,406.8,401,407.8"/>
	<path class="st1" d="M434.3,414.3c-2.6,0-4.6-0.7-5.9-2.3c-1.4-1.5-2-3.7-2-6.6c0-2.9,0.7-5.1,2.1-6.7c1.4-1.6,3.5-2.3,6.2-2.3
		c1.8,0,3.5,0.3,4.9,1l-1.1,2.9c-1.5-0.6-2.8-0.9-3.8-0.9c-3,0-4.5,2-4.5,5.9c0,1.9,0.4,3.4,1.1,4.4c0.8,1,1.8,1.5,3.3,1.5
		c1.6,0,3.2-0.4,4.6-1.2v3.2c-0.7,0.4-1.4,0.7-2.1,0.8C436.3,414.2,435.4,414.3,434.3,414.3"/>
	<path class="st1" d="M465.6,405.3c0,2.8-0.7,5-2.2,6.6c-1.4,1.6-3.5,2.4-6,2.4c-1.6,0-3-0.4-4.3-1.1c-1.2-0.7-2.2-1.8-2.9-3.1
		c-0.7-1.4-1-2.9-1-4.7c0-2.8,0.7-5,2.2-6.6c1.4-1.6,3.5-2.4,6.1-2.4c2.5,0,4.5,0.8,5.9,2.4C464.8,400.4,465.6,402.6,465.6,405.3
		 M453,405.3c0,4,1.5,6,4.4,6c2.9,0,4.4-2,4.4-6c0-3.9-1.5-5.9-4.4-5.9c-1.5,0-2.7,0.5-3.4,1.5C453.3,402,453,403.4,453,405.3"/>
	<path class="st1" d="M491.4,414h-3.7v-10.7c0-1.3-0.2-2.3-0.7-2.9c-0.5-0.7-1.3-1-2.3-1c-1.4,0-2.5,0.5-3.1,1.4
		c-0.7,0.9-1,2.4-1,4.6v8.6h-3.7v-17.3h2.9l0.5,2.3h0.2c0.5-0.8,1.2-1.5,2.1-1.9c0.9-0.5,1.9-0.7,3-0.7c2.7,0,4.4,0.9,5.3,2.7h0.2
		c0.5-0.9,1.2-1.5,2.2-2c0.9-0.5,2-0.7,3.2-0.7c2.1,0,3.6,0.5,4.5,1.6c0.9,1,1.4,2.6,1.4,4.8V414h-3.7v-10.7c0-1.3-0.3-2.3-0.8-2.9
		c-0.5-0.7-1.3-1-2.4-1c-1.4,0-2.5,0.4-3.1,1.3c-0.7,0.9-1,2.3-1,4.1"/>
	<path class="st1" d="M523.2,414.3c-2.2,0-3.9-0.8-5.1-2.4h-0.2c0.1,1.5,0.2,2.3,0.2,2.7v7.1h-3.7v-25h3c0.1,0.3,0.2,1.1,0.5,2.3
		h0.2c1.1-1.7,2.9-2.6,5.1-2.6c2.2,0,3.8,0.8,5,2.3c1.2,1.6,1.8,3.7,1.8,6.6c0,2.8-0.6,5-1.8,6.6C527,413.5,525.3,414.3,523.2,414.3
		 M522.3,399.4c-1.5,0-2.5,0.4-3.2,1.3c-0.7,0.9-1,2.2-1,4.1v0.5c0,2.1,0.3,3.6,1,4.6c0.7,0.9,1.7,1.4,3.3,1.4
		c1.3,0,2.2-0.5,2.9-1.6c0.7-1,1-2.5,1-4.4c0-1.9-0.3-3.4-1-4.4C524.6,399.9,523.6,399.4,522.3,399.4"/>
	<path class="st1" d="M552.2,414l-0.7-2.4h-0.1c-0.8,1-1.7,1.8-2.5,2.1c-0.8,0.4-1.9,0.6-3.2,0.6c-1.7,0-3-0.5-4-1.4
		c-1-0.9-1.4-2.2-1.4-3.9c0-1.8,0.7-3.1,2-4c1.3-0.9,3.3-1.4,6-1.5l3-0.1v-0.9c0-1.1-0.2-1.9-0.8-2.5c-0.5-0.5-1.3-0.8-2.4-0.8
		c-0.9,0-1.7,0.1-2.5,0.4c-0.8,0.3-1.6,0.6-2.3,0.9l-1.2-2.6c0.9-0.5,2-0.9,3.1-1.1c1.1-0.3,2.2-0.4,3.2-0.4c2.2,0,3.9,0.5,5,1.4
		c1.1,1,1.7,2.5,1.7,4.5V414 M546.7,411.5c1.3,0,2.4-0.4,3.2-1.1c0.8-0.7,1.2-1.8,1.2-3.1v-1.5l-2.2,0.1c-1.7,0.1-3,0.3-3.8,0.9
		c-0.8,0.5-1.2,1.3-1.2,2.4c0,0.8,0.2,1.4,0.7,1.8C545.1,411.3,545.8,411.5,546.7,411.5"/>
	<path class="st1" d="M582.1,414h-3.7v-10.6c0-1.3-0.3-2.3-0.8-3c-0.5-0.7-1.4-1-2.6-1c-1.5,0-2.7,0.5-3.4,1.4
		c-0.7,0.9-1.1,2.4-1.1,4.6v8.6H567v-17.3h2.9l0.5,2.3h0.2c0.5-0.8,1.3-1.5,2.2-1.9c1-0.5,2-0.7,3.2-0.7c4.1,0,6.2,2.1,6.2,6.3"/>
	<path class="st1" d="M591.7,396.7h4l3.5,9.8c0.5,1.4,0.9,2.7,1.1,3.9h0.1c0.1-0.6,0.3-1.3,0.5-2.1c0.2-0.8,1.6-4.7,4-11.6h4
		l-7.4,19.6c-1.3,3.6-3.6,5.4-6.7,5.4c-0.8,0-1.6-0.1-2.4-0.3v-2.9c0.5,0.1,1.2,0.2,1.9,0.2c1.8,0,3-1,3.7-3.1l0.6-1.6"/>
</g>
</svg>
